ISO-10303-21;
HEADER;
/* Generated by software containing ST-Developer
 * from STEP Tools, Inc. (www.steptools.com) 
 */

FILE_DESCRIPTION(
/* description */ (''),
/* implementation_level */ '2;1');

FILE_NAME(
/* name */ '2f42e7ee-d7db-4628-8729-4356dff20a7b.stp',
/* time_stamp */ '2026-03-26T15:11:47Z',
/* author */ (''),
/* organization */ (''),
/* preprocessor_version */ 'ST-DEVELOPER v20.1',
/* originating_system */ 'Autodesk Translation Framework v15.8.0.0',
/* authorisation */ '');

FILE_SCHEMA (('AUTOMOTIVE_DESIGN { 1 0 10303 214 3 1 1 }'));
ENDSEC;

DATA;
#10=MECHANICAL_DESIGN_GEOMETRIC_PRESENTATION_REPRESENTATION('',(#13),#956);
#11=SHAPE_REPRESENTATION_RELATIONSHIP('SRR','None',#963,#12);
#12=ADVANCED_BREP_SHAPE_REPRESENTATION('',(#14),#955);
#13=STYLED_ITEM('',(#972),#14);
#14=MANIFOLD_SOLID_BREP('Body1',#580);
#15=TOROIDAL_SURFACE('',#608,12.,1.);
#16=FACE_BOUND('',#97,.T.);
#17=FACE_BOUND('',#100,.T.);
#18=FACE_BOUND('',#101,.T.);
#19=FACE_BOUND('',#102,.T.);
#20=FACE_BOUND('',#103,.T.);
#21=FACE_BOUND('',#104,.T.);
#22=FACE_BOUND('',#107,.T.);
#23=PLANE('',#604);
#24=PLANE('',#605);
#25=PLANE('',#606);
#26=PLANE('',#611);
#27=PLANE('',#613);
#28=PLANE('',#614);
#29=PLANE('',#616);
#30=PLANE('',#617);
#31=PLANE('',#618);
#32=PLANE('',#619);
#33=PLANE('',#620);
#34=PLANE('',#621);
#35=PLANE('',#622);
#36=PLANE('',#623);
#37=PLANE('',#624);
#38=PLANE('',#625);
#39=PLANE('',#626);
#40=PLANE('',#627);
#41=PLANE('',#628);
#42=PLANE('',#629);
#43=PLANE('',#630);
#44=PLANE('',#631);
#45=PLANE('',#632);
#46=PLANE('',#633);
#47=PLANE('',#634);
#48=PLANE('',#635);
#49=PLANE('',#637);
#50=CIRCLE('',#600,1.);
#51=CIRCLE('',#601,1.);
#52=CIRCLE('',#607,12.);
#53=CIRCLE('',#609,1.);
#54=CIRCLE('',#610,11.);
#55=CIRCLE('',#612,6.375);
#56=CIRCLE('',#615,6.375);
#57=FACE_OUTER_BOUND('',#90,.T.);
#58=FACE_OUTER_BOUND('',#91,.T.);
#59=FACE_OUTER_BOUND('',#92,.T.);
#60=FACE_OUTER_BOUND('',#93,.T.);
#61=FACE_OUTER_BOUND('',#94,.T.);
#62=FACE_OUTER_BOUND('',#95,.T.);
#63=FACE_OUTER_BOUND('',#96,.T.);
#64=FACE_OUTER_BOUND('',#98,.T.);
#65=FACE_OUTER_BOUND('',#99,.T.);
#66=FACE_OUTER_BOUND('',#105,.T.);
#67=FACE_OUTER_BOUND('',#106,.T.);
#68=FACE_OUTER_BOUND('',#108,.T.);
#69=FACE_OUTER_BOUND('',#109,.T.);
#70=FACE_OUTER_BOUND('',#110,.T.);
#71=FACE_OUTER_BOUND('',#111,.T.);
#72=FACE_OUTER_BOUND('',#112,.T.);
#73=FACE_OUTER_BOUND('',#113,.T.);
#74=FACE_OUTER_BOUND('',#114,.T.);
#75=FACE_OUTER_BOUND('',#115,.T.);
#76=FACE_OUTER_BOUND('',#116,.T.);
#77=FACE_OUTER_BOUND('',#117,.T.);
#78=FACE_OUTER_BOUND('',#118,.T.);
#79=FACE_OUTER_BOUND('',#119,.T.);
#80=FACE_OUTER_BOUND('',#120,.T.);
#81=FACE_OUTER_BOUND('',#121,.T.);
#82=FACE_OUTER_BOUND('',#122,.T.);
#83=FACE_OUTER_BOUND('',#123,.T.);
#84=FACE_OUTER_BOUND('',#124,.T.);
#85=FACE_OUTER_BOUND('',#125,.T.);
#86=FACE_OUTER_BOUND('',#126,.T.);
#87=FACE_OUTER_BOUND('',#127,.T.);
#88=FACE_OUTER_BOUND('',#128,.T.);
#89=FACE_OUTER_BOUND('',#129,.T.);
#90=EDGE_LOOP('',(#390,#391,#392,#393));
#91=EDGE_LOOP('',(#394,#395,#396,#397));
#92=EDGE_LOOP('',(#398,#399,#400,#401,#402,#403));
#93=EDGE_LOOP('',(#404,#405,#406,#407));
#94=EDGE_LOOP('',(#408,#409,#410,#411,#412));
#95=EDGE_LOOP('',(#413,#414,#415,#416));
#96=EDGE_LOOP('',(#417,#418,#419,#420));
#97=EDGE_LOOP('',(#421));
#98=EDGE_LOOP('',(#422,#423,#424,#425));
#99=EDGE_LOOP('',(#426,#427,#428,#429));
#100=EDGE_LOOP('',(#430));
#101=EDGE_LOOP('',(#431,#432,#433,#434));
#102=EDGE_LOOP('',(#435,#436,#437,#438));
#103=EDGE_LOOP('',(#439,#440,#441,#442));
#104=EDGE_LOOP('',(#443,#444,#445,#446));
#105=EDGE_LOOP('',(#447,#448,#449,#450,#451));
#106=EDGE_LOOP('',(#452));
#107=EDGE_LOOP('',(#453));
#108=EDGE_LOOP('',(#454,#455,#456,#457));
#109=EDGE_LOOP('',(#458,#459,#460,#461));
#110=EDGE_LOOP('',(#462,#463,#464,#465));
#111=EDGE_LOOP('',(#466,#467,#468,#469));
#112=EDGE_LOOP('',(#470,#471,#472,#473));
#113=EDGE_LOOP('',(#474,#475,#476,#477));
#114=EDGE_LOOP('',(#478,#479,#480,#481));
#115=EDGE_LOOP('',(#482,#483,#484,#485));
#116=EDGE_LOOP('',(#486,#487,#488,#489));
#117=EDGE_LOOP('',(#490,#491,#492,#493));
#118=EDGE_LOOP('',(#494,#495,#496,#497));
#119=EDGE_LOOP('',(#498,#499,#500,#501));
#120=EDGE_LOOP('',(#502,#503,#504,#505));
#121=EDGE_LOOP('',(#506,#507,#508,#509));
#122=EDGE_LOOP('',(#510,#511,#512,#513));
#123=EDGE_LOOP('',(#514,#515,#516,#517));
#124=EDGE_LOOP('',(#518,#519,#520,#521));
#125=EDGE_LOOP('',(#522,#523,#524,#525));
#126=EDGE_LOOP('',(#526,#527,#528,#529));
#127=EDGE_LOOP('',(#530,#531,#532,#533));
#128=EDGE_LOOP('',(#534,#535,#536,#537));
#129=EDGE_LOOP('',(#538,#539,#540,#541));
#130=ELLIPSE('',#595,1.41421356237309,1.);
#131=ELLIPSE('',#596,1.4142135623731,1.);
#132=ELLIPSE('',#598,1.4142135623731,1.);
#133=ELLIPSE('',#602,1.4142135623731,1.);
#134=LINE('',#797,#199);
#135=LINE('',#801,#200);
#136=LINE('',#805,#201);
#137=LINE('',#807,#202);
#138=LINE('',#811,#203);
#139=LINE('',#815,#204);
#140=LINE('',#820,#205);
#141=LINE('',#821,#206);
#142=LINE('',#824,#207);
#143=LINE('',#826,#208);
#144=LINE('',#827,#209);
#145=LINE('',#830,#210);
#146=LINE('',#831,#211);
#147=LINE('',#841,#212);
#148=LINE('',#842,#213);
#149=LINE('',#847,#214);
#150=LINE('',#849,#215);
#151=LINE('',#851,#216);
#152=LINE('',#852,#217);
#153=LINE('',#855,#218);
#154=LINE('',#857,#219);
#155=LINE('',#859,#220);
#156=LINE('',#860,#221);
#157=LINE('',#863,#222);
#158=LINE('',#865,#223);
#159=LINE('',#867,#224);
#160=LINE('',#868,#225);
#161=LINE('',#871,#226);
#162=LINE('',#873,#227);
#163=LINE('',#875,#228);
#164=LINE('',#876,#229);
#165=LINE('',#878,#230);
#166=LINE('',#884,#231);
#167=LINE('',#886,#232);
#168=LINE('',#887,#233);
#169=LINE('',#890,#234);
#170=LINE('',#891,#235);
#171=LINE('',#894,#236);
#172=LINE('',#895,#237);
#173=LINE('',#897,#238);
#174=LINE('',#901,#239);
#175=LINE('',#903,#240);
#176=LINE('',#904,#241);
#177=LINE('',#907,#242);
#178=LINE('',#908,#243);
#179=LINE('',#911,#244);
#180=LINE('',#912,#245);
#181=LINE('',#914,#246);
#182=LINE('',#918,#247);
#183=LINE('',#920,#248);
#184=LINE('',#921,#249);
#185=LINE('',#924,#250);
#186=LINE('',#925,#251);
#187=LINE('',#928,#252);
#188=LINE('',#929,#253);
#189=LINE('',#931,#254);
#190=LINE('',#935,#255);
#191=LINE('',#937,#256);
#192=LINE('',#938,#257);
#193=LINE('',#941,#258);
#194=LINE('',#942,#259);
#195=LINE('',#945,#260);
#196=LINE('',#946,#261);
#197=LINE('',#948,#262);
#198=LINE('',#951,#263);
#199=VECTOR('',#642,10.);
#200=VECTOR('',#645,10.);
#201=VECTOR('',#650,10.);
#202=VECTOR('',#651,10.);
#203=VECTOR('',#656,10.);
#204=VECTOR('',#659,10.);
#205=VECTOR('',#666,10.);
#206=VECTOR('',#667,10.);
#207=VECTOR('',#670,10.);
#208=VECTOR('',#671,10.);
#209=VECTOR('',#672,10.);
#210=VECTOR('',#675,10.);
#211=VECTOR('',#676,10.);
#212=VECTOR('',#689,10.);
#213=VECTOR('',#690,10.);
#214=VECTOR('',#693,10.);
#215=VECTOR('',#694,10.);
#216=VECTOR('',#695,10.);
#217=VECTOR('',#696,10.);
#218=VECTOR('',#697,10.);
#219=VECTOR('',#698,10.);
#220=VECTOR('',#699,10.);
#221=VECTOR('',#700,10.);
#222=VECTOR('',#701,10.);
#223=VECTOR('',#702,10.);
#224=VECTOR('',#703,10.);
#225=VECTOR('',#704,10.);
#226=VECTOR('',#705,10.);
#227=VECTOR('',#706,10.);
#228=VECTOR('',#707,10.);
#229=VECTOR('',#708,10.);
#230=VECTOR('',#711,10.);
#231=VECTOR('',#718,10.);
#232=VECTOR('',#719,10.);
#233=VECTOR('',#720,10.);
#234=VECTOR('',#723,10.);
#235=VECTOR('',#724,10.);
#236=VECTOR('',#727,10.);
#237=VECTOR('',#728,10.);
#238=VECTOR('',#731,10.);
#239=VECTOR('',#736,10.);
#240=VECTOR('',#737,10.);
#241=VECTOR('',#738,10.);
#242=VECTOR('',#741,10.);
#243=VECTOR('',#742,10.);
#244=VECTOR('',#745,10.);
#245=VECTOR('',#746,10.);
#246=VECTOR('',#749,10.);
#247=VECTOR('',#754,10.);
#248=VECTOR('',#755,10.);
#249=VECTOR('',#756,10.);
#250=VECTOR('',#759,10.);
#251=VECTOR('',#760,10.);
#252=VECTOR('',#763,10.);
#253=VECTOR('',#764,10.);
#254=VECTOR('',#767,10.);
#255=VECTOR('',#772,10.);
#256=VECTOR('',#773,10.);
#257=VECTOR('',#774,10.);
#258=VECTOR('',#777,10.);
#259=VECTOR('',#778,10.);
#260=VECTOR('',#781,10.);
#261=VECTOR('',#782,10.);
#262=VECTOR('',#785,10.);
#263=VECTOR('',#790,6.375);
#264=VERTEX_POINT('',#795);
#265=VERTEX_POINT('',#796);
#266=VERTEX_POINT('',#798);
#267=VERTEX_POINT('',#800);
#268=VERTEX_POINT('',#804);
#269=VERTEX_POINT('',#806);
#270=VERTEX_POINT('',#810);
#271=VERTEX_POINT('',#812);
#272=VERTEX_POINT('',#814);
#273=VERTEX_POINT('',#816);
#274=VERTEX_POINT('',#823);
#275=VERTEX_POINT('',#825);
#276=VERTEX_POINT('',#829);
#277=VERTEX_POINT('',#833);
#278=VERTEX_POINT('',#836);
#279=VERTEX_POINT('',#840);
#280=VERTEX_POINT('',#843);
#281=VERTEX_POINT('',#845);
#282=VERTEX_POINT('',#846);
#283=VERTEX_POINT('',#848);
#284=VERTEX_POINT('',#850);
#285=VERTEX_POINT('',#853);
#286=VERTEX_POINT('',#854);
#287=VERTEX_POINT('',#856);
#288=VERTEX_POINT('',#858);
#289=VERTEX_POINT('',#861);
#290=VERTEX_POINT('',#862);
#291=VERTEX_POINT('',#864);
#292=VERTEX_POINT('',#866);
#293=VERTEX_POINT('',#869);
#294=VERTEX_POINT('',#870);
#295=VERTEX_POINT('',#872);
#296=VERTEX_POINT('',#874);
#297=VERTEX_POINT('',#880);
#298=VERTEX_POINT('',#883);
#299=VERTEX_POINT('',#885);
#300=VERTEX_POINT('',#889);
#301=VERTEX_POINT('',#893);
#302=VERTEX_POINT('',#900);
#303=VERTEX_POINT('',#902);
#304=VERTEX_POINT('',#906);
#305=VERTEX_POINT('',#910);
#306=VERTEX_POINT('',#917);
#307=VERTEX_POINT('',#919);
#308=VERTEX_POINT('',#923);
#309=VERTEX_POINT('',#927);
#310=VERTEX_POINT('',#934);
#311=VERTEX_POINT('',#936);
#312=VERTEX_POINT('',#940);
#313=VERTEX_POINT('',#944);
#314=EDGE_CURVE('',#264,#265,#134,.T.);
#315=EDGE_CURVE('',#265,#266,#130,.T.);
#316=EDGE_CURVE('',#266,#267,#135,.T.);
#317=EDGE_CURVE('',#267,#264,#131,.T.);
#318=EDGE_CURVE('',#268,#266,#136,.T.);
#319=EDGE_CURVE('',#265,#269,#137,.T.);
#320=EDGE_CURVE('',#269,#268,#132,.T.);
#321=EDGE_CURVE('',#270,#264,#138,.T.);
#322=EDGE_CURVE('',#267,#271,#50,.T.);
#323=EDGE_CURVE('',#271,#272,#139,.T.);
#324=EDGE_CURVE('',#272,#273,#51,.T.);
#325=EDGE_CURVE('',#270,#273,#133,.T.);
#326=EDGE_CURVE('',#273,#268,#140,.T.);
#327=EDGE_CURVE('',#269,#270,#141,.T.);
#328=EDGE_CURVE('',#274,#272,#142,.T.);
#329=EDGE_CURVE('',#275,#274,#143,.T.);
#330=EDGE_CURVE('',#268,#275,#144,.T.);
#331=EDGE_CURVE('',#271,#276,#145,.T.);
#332=EDGE_CURVE('',#276,#274,#146,.T.);
#333=EDGE_CURVE('',#277,#277,#52,.T.);
#334=EDGE_CURVE('',#277,#278,#53,.T.);
#335=EDGE_CURVE('',#278,#278,#54,.T.);
#336=EDGE_CURVE('',#279,#276,#147,.T.);
#337=EDGE_CURVE('',#279,#275,#148,.T.);
#338=EDGE_CURVE('',#280,#280,#55,.T.);
#339=EDGE_CURVE('',#281,#282,#149,.T.);
#340=EDGE_CURVE('',#282,#283,#150,.T.);
#341=EDGE_CURVE('',#283,#284,#151,.T.);
#342=EDGE_CURVE('',#284,#281,#152,.T.);
#343=EDGE_CURVE('',#285,#286,#153,.T.);
#344=EDGE_CURVE('',#286,#287,#154,.T.);
#345=EDGE_CURVE('',#287,#288,#155,.T.);
#346=EDGE_CURVE('',#288,#285,#156,.T.);
#347=EDGE_CURVE('',#289,#290,#157,.T.);
#348=EDGE_CURVE('',#290,#291,#158,.T.);
#349=EDGE_CURVE('',#291,#292,#159,.T.);
#350=EDGE_CURVE('',#292,#289,#160,.T.);
#351=EDGE_CURVE('',#293,#294,#161,.T.);
#352=EDGE_CURVE('',#294,#295,#162,.T.);
#353=EDGE_CURVE('',#295,#296,#163,.T.);
#354=EDGE_CURVE('',#296,#293,#164,.T.);
#355=EDGE_CURVE('',#266,#279,#165,.T.);
#356=EDGE_CURVE('',#297,#297,#56,.T.);
#357=EDGE_CURVE('',#293,#298,#166,.T.);
#358=EDGE_CURVE('',#299,#298,#167,.T.);
#359=EDGE_CURVE('',#294,#299,#168,.T.);
#360=EDGE_CURVE('',#300,#299,#169,.T.);
#361=EDGE_CURVE('',#295,#300,#170,.T.);
#362=EDGE_CURVE('',#301,#300,#171,.T.);
#363=EDGE_CURVE('',#296,#301,#172,.T.);
#364=EDGE_CURVE('',#298,#301,#173,.T.);
#365=EDGE_CURVE('',#289,#302,#174,.T.);
#366=EDGE_CURVE('',#303,#302,#175,.T.);
#367=EDGE_CURVE('',#290,#303,#176,.T.);
#368=EDGE_CURVE('',#304,#303,#177,.T.);
#369=EDGE_CURVE('',#291,#304,#178,.T.);
#370=EDGE_CURVE('',#305,#304,#179,.T.);
#371=EDGE_CURVE('',#292,#305,#180,.T.);
#372=EDGE_CURVE('',#302,#305,#181,.T.);
#373=EDGE_CURVE('',#285,#306,#182,.T.);
#374=EDGE_CURVE('',#307,#306,#183,.T.);
#375=EDGE_CURVE('',#286,#307,#184,.T.);
#376=EDGE_CURVE('',#308,#307,#185,.T.);
#377=EDGE_CURVE('',#287,#308,#186,.T.);
#378=EDGE_CURVE('',#309,#308,#187,.T.);
#379=EDGE_CURVE('',#288,#309,#188,.T.);
#380=EDGE_CURVE('',#306,#309,#189,.T.);
#381=EDGE_CURVE('',#281,#310,#190,.T.);
#382=EDGE_CURVE('',#311,#310,#191,.T.);
#383=EDGE_CURVE('',#282,#311,#192,.T.);
#384=EDGE_CURVE('',#312,#311,#193,.T.);
#385=EDGE_CURVE('',#283,#312,#194,.T.);
#386=EDGE_CURVE('',#313,#312,#195,.T.);
#387=EDGE_CURVE('',#284,#313,#196,.T.);
#388=EDGE_CURVE('',#310,#313,#197,.T.);
#389=EDGE_CURVE('',#280,#297,#198,.T.);
#390=ORIENTED_EDGE('',*,*,#314,.T.);
#391=ORIENTED_EDGE('',*,*,#315,.T.);
#392=ORIENTED_EDGE('',*,*,#316,.T.);
#393=ORIENTED_EDGE('',*,*,#317,.T.);
#394=ORIENTED_EDGE('',*,*,#318,.T.);
#395=ORIENTED_EDGE('',*,*,#315,.F.);
#396=ORIENTED_EDGE('',*,*,#319,.T.);
#397=ORIENTED_EDGE('',*,*,#320,.T.);
#398=ORIENTED_EDGE('',*,*,#321,.T.);
#399=ORIENTED_EDGE('',*,*,#317,.F.);
#400=ORIENTED_EDGE('',*,*,#322,.T.);
#401=ORIENTED_EDGE('',*,*,#323,.T.);
#402=ORIENTED_EDGE('',*,*,#324,.T.);
#403=ORIENTED_EDGE('',*,*,#325,.F.);
#404=ORIENTED_EDGE('',*,*,#326,.T.);
#405=ORIENTED_EDGE('',*,*,#320,.F.);
#406=ORIENTED_EDGE('',*,*,#327,.T.);
#407=ORIENTED_EDGE('',*,*,#325,.T.);
#408=ORIENTED_EDGE('',*,*,#326,.F.);
#409=ORIENTED_EDGE('',*,*,#324,.F.);
#410=ORIENTED_EDGE('',*,*,#328,.F.);
#411=ORIENTED_EDGE('',*,*,#329,.F.);
#412=ORIENTED_EDGE('',*,*,#330,.F.);
#413=ORIENTED_EDGE('',*,*,#323,.F.);
#414=ORIENTED_EDGE('',*,*,#331,.T.);
#415=ORIENTED_EDGE('',*,*,#332,.T.);
#416=ORIENTED_EDGE('',*,*,#328,.T.);
#417=ORIENTED_EDGE('',*,*,#314,.F.);
#418=ORIENTED_EDGE('',*,*,#321,.F.);
#419=ORIENTED_EDGE('',*,*,#327,.F.);
#420=ORIENTED_EDGE('',*,*,#319,.F.);
#421=ORIENTED_EDGE('',*,*,#333,.F.);
#422=ORIENTED_EDGE('',*,*,#333,.T.);
#423=ORIENTED_EDGE('',*,*,#334,.T.);
#424=ORIENTED_EDGE('',*,*,#335,.F.);
#425=ORIENTED_EDGE('',*,*,#334,.F.);
#426=ORIENTED_EDGE('',*,*,#332,.F.);
#427=ORIENTED_EDGE('',*,*,#336,.F.);
#428=ORIENTED_EDGE('',*,*,#337,.T.);
#429=ORIENTED_EDGE('',*,*,#329,.T.);
#430=ORIENTED_EDGE('',*,*,#338,.T.);
#431=ORIENTED_EDGE('',*,*,#339,.T.);
#432=ORIENTED_EDGE('',*,*,#340,.T.);
#433=ORIENTED_EDGE('',*,*,#341,.T.);
#434=ORIENTED_EDGE('',*,*,#342,.T.);
#435=ORIENTED_EDGE('',*,*,#343,.T.);
#436=ORIENTED_EDGE('',*,*,#344,.T.);
#437=ORIENTED_EDGE('',*,*,#345,.T.);
#438=ORIENTED_EDGE('',*,*,#346,.T.);
#439=ORIENTED_EDGE('',*,*,#347,.T.);
#440=ORIENTED_EDGE('',*,*,#348,.T.);
#441=ORIENTED_EDGE('',*,*,#349,.T.);
#442=ORIENTED_EDGE('',*,*,#350,.T.);
#443=ORIENTED_EDGE('',*,*,#351,.T.);
#444=ORIENTED_EDGE('',*,*,#352,.T.);
#445=ORIENTED_EDGE('',*,*,#353,.T.);
#446=ORIENTED_EDGE('',*,*,#354,.T.);
#447=ORIENTED_EDGE('',*,*,#316,.F.);
#448=ORIENTED_EDGE('',*,*,#355,.T.);
#449=ORIENTED_EDGE('',*,*,#336,.T.);
#450=ORIENTED_EDGE('',*,*,#331,.F.);
#451=ORIENTED_EDGE('',*,*,#322,.F.);
#452=ORIENTED_EDGE('',*,*,#335,.T.);
#453=ORIENTED_EDGE('',*,*,#356,.T.);
#454=ORIENTED_EDGE('',*,*,#351,.F.);
#455=ORIENTED_EDGE('',*,*,#357,.T.);
#456=ORIENTED_EDGE('',*,*,#358,.F.);
#457=ORIENTED_EDGE('',*,*,#359,.F.);
#458=ORIENTED_EDGE('',*,*,#352,.F.);
#459=ORIENTED_EDGE('',*,*,#359,.T.);
#460=ORIENTED_EDGE('',*,*,#360,.F.);
#461=ORIENTED_EDGE('',*,*,#361,.F.);
#462=ORIENTED_EDGE('',*,*,#353,.F.);
#463=ORIENTED_EDGE('',*,*,#361,.T.);
#464=ORIENTED_EDGE('',*,*,#362,.F.);
#465=ORIENTED_EDGE('',*,*,#363,.F.);
#466=ORIENTED_EDGE('',*,*,#354,.F.);
#467=ORIENTED_EDGE('',*,*,#363,.T.);
#468=ORIENTED_EDGE('',*,*,#364,.F.);
#469=ORIENTED_EDGE('',*,*,#357,.F.);
#470=ORIENTED_EDGE('',*,*,#364,.T.);
#471=ORIENTED_EDGE('',*,*,#362,.T.);
#472=ORIENTED_EDGE('',*,*,#360,.T.);
#473=ORIENTED_EDGE('',*,*,#358,.T.);
#474=ORIENTED_EDGE('',*,*,#347,.F.);
#475=ORIENTED_EDGE('',*,*,#365,.T.);
#476=ORIENTED_EDGE('',*,*,#366,.F.);
#477=ORIENTED_EDGE('',*,*,#367,.F.);
#478=ORIENTED_EDGE('',*,*,#348,.F.);
#479=ORIENTED_EDGE('',*,*,#367,.T.);
#480=ORIENTED_EDGE('',*,*,#368,.F.);
#481=ORIENTED_EDGE('',*,*,#369,.F.);
#482=ORIENTED_EDGE('',*,*,#349,.F.);
#483=ORIENTED_EDGE('',*,*,#369,.T.);
#484=ORIENTED_EDGE('',*,*,#370,.F.);
#485=ORIENTED_EDGE('',*,*,#371,.F.);
#486=ORIENTED_EDGE('',*,*,#350,.F.);
#487=ORIENTED_EDGE('',*,*,#371,.T.);
#488=ORIENTED_EDGE('',*,*,#372,.F.);
#489=ORIENTED_EDGE('',*,*,#365,.F.);
#490=ORIENTED_EDGE('',*,*,#372,.T.);
#491=ORIENTED_EDGE('',*,*,#370,.T.);
#492=ORIENTED_EDGE('',*,*,#368,.T.);
#493=ORIENTED_EDGE('',*,*,#366,.T.);
#494=ORIENTED_EDGE('',*,*,#343,.F.);
#495=ORIENTED_EDGE('',*,*,#373,.T.);
#496=ORIENTED_EDGE('',*,*,#374,.F.);
#497=ORIENTED_EDGE('',*,*,#375,.F.);
#498=ORIENTED_EDGE('',*,*,#344,.F.);
#499=ORIENTED_EDGE('',*,*,#375,.T.);
#500=ORIENTED_EDGE('',*,*,#376,.F.);
#501=ORIENTED_EDGE('',*,*,#377,.F.);
#502=ORIENTED_EDGE('',*,*,#345,.F.);
#503=ORIENTED_EDGE('',*,*,#377,.T.);
#504=ORIENTED_EDGE('',*,*,#378,.F.);
#505=ORIENTED_EDGE('',*,*,#379,.F.);
#506=ORIENTED_EDGE('',*,*,#346,.F.);
#507=ORIENTED_EDGE('',*,*,#379,.T.);
#508=ORIENTED_EDGE('',*,*,#380,.F.);
#509=ORIENTED_EDGE('',*,*,#373,.F.);
#510=ORIENTED_EDGE('',*,*,#380,.T.);
#511=ORIENTED_EDGE('',*,*,#378,.T.);
#512=ORIENTED_EDGE('',*,*,#376,.T.);
#513=ORIENTED_EDGE('',*,*,#374,.T.);
#514=ORIENTED_EDGE('',*,*,#339,.F.);
#515=ORIENTED_EDGE('',*,*,#381,.T.);
#516=ORIENTED_EDGE('',*,*,#382,.F.);
#517=ORIENTED_EDGE('',*,*,#383,.F.);
#518=ORIENTED_EDGE('',*,*,#340,.F.);
#519=ORIENTED_EDGE('',*,*,#383,.T.);
#520=ORIENTED_EDGE('',*,*,#384,.F.);
#521=ORIENTED_EDGE('',*,*,#385,.F.);
#522=ORIENTED_EDGE('',*,*,#341,.F.);
#523=ORIENTED_EDGE('',*,*,#385,.T.);
#524=ORIENTED_EDGE('',*,*,#386,.F.);
#525=ORIENTED_EDGE('',*,*,#387,.F.);
#526=ORIENTED_EDGE('',*,*,#342,.F.);
#527=ORIENTED_EDGE('',*,*,#387,.T.);
#528=ORIENTED_EDGE('',*,*,#388,.F.);
#529=ORIENTED_EDGE('',*,*,#381,.F.);
#530=ORIENTED_EDGE('',*,*,#388,.T.);
#531=ORIENTED_EDGE('',*,*,#386,.T.);
#532=ORIENTED_EDGE('',*,*,#384,.T.);
#533=ORIENTED_EDGE('',*,*,#382,.T.);
#534=ORIENTED_EDGE('',*,*,#338,.F.);
#535=ORIENTED_EDGE('',*,*,#389,.T.);
#536=ORIENTED_EDGE('',*,*,#356,.F.);
#537=ORIENTED_EDGE('',*,*,#389,.F.);
#538=ORIENTED_EDGE('',*,*,#318,.F.);
#539=ORIENTED_EDGE('',*,*,#330,.T.);
#540=ORIENTED_EDGE('',*,*,#337,.F.);
#541=ORIENTED_EDGE('',*,*,#355,.F.);
#542=CYLINDRICAL_SURFACE('',#594,1.);
#543=CYLINDRICAL_SURFACE('',#597,1.);
#544=CYLINDRICAL_SURFACE('',#599,1.);
#545=CYLINDRICAL_SURFACE('',#603,1.);
#546=CYLINDRICAL_SURFACE('',#636,6.375);
#547=ADVANCED_FACE('',(#57),#542,.T.);
#548=ADVANCED_FACE('',(#58),#543,.T.);
#549=ADVANCED_FACE('',(#59),#544,.T.);
#550=ADVANCED_FACE('',(#60),#545,.T.);
#551=ADVANCED_FACE('',(#61),#23,.T.);
#552=ADVANCED_FACE('',(#62),#24,.T.);
#553=ADVANCED_FACE('',(#63,#16),#25,.T.);
#554=ADVANCED_FACE('',(#64),#15,.T.);
#555=ADVANCED_FACE('',(#65,#17,#18,#19,#20,#21),#26,.T.);
#556=ADVANCED_FACE('',(#66),#27,.T.);
#557=ADVANCED_FACE('',(#67,#22),#28,.F.);
#558=ADVANCED_FACE('',(#68),#29,.T.);
#559=ADVANCED_FACE('',(#69),#30,.T.);
#560=ADVANCED_FACE('',(#70),#31,.T.);
#561=ADVANCED_FACE('',(#71),#32,.T.);
#562=ADVANCED_FACE('',(#72),#33,.T.);
#563=ADVANCED_FACE('',(#73),#34,.T.);
#564=ADVANCED_FACE('',(#74),#35,.T.);
#565=ADVANCED_FACE('',(#75),#36,.T.);
#566=ADVANCED_FACE('',(#76),#37,.T.);
#567=ADVANCED_FACE('',(#77),#38,.T.);
#568=ADVANCED_FACE('',(#78),#39,.T.);
#569=ADVANCED_FACE('',(#79),#40,.T.);
#570=ADVANCED_FACE('',(#80),#41,.T.);
#571=ADVANCED_FACE('',(#81),#42,.T.);
#572=ADVANCED_FACE('',(#82),#43,.T.);
#573=ADVANCED_FACE('',(#83),#44,.T.);
#574=ADVANCED_FACE('',(#84),#45,.T.);
#575=ADVANCED_FACE('',(#85),#46,.T.);
#576=ADVANCED_FACE('',(#86),#47,.T.);
#577=ADVANCED_FACE('',(#87),#48,.T.);
#578=ADVANCED_FACE('',(#88),#546,.F.);
#579=ADVANCED_FACE('',(#89),#49,.T.);
#580=CLOSED_SHELL('',(#547,#548,#549,#550,#551,#552,#553,#554,#555,#556,
#557,#558,#559,#560,#561,#562,#563,#564,#565,#566,#567,#568,#569,#570,#571,
#572,#573,#574,#575,#576,#577,#578,#579));
#581=DERIVED_UNIT_ELEMENT(#583,1.);
#582=DERIVED_UNIT_ELEMENT(#958,-3.);
#583=(
MASS_UNIT()
NAMED_UNIT(*)
SI_UNIT(.KILO.,.GRAM.)
);
#584=DERIVED_UNIT((#581,#582));
#585=MEASURE_REPRESENTATION_ITEM('density measure',
POSITIVE_RATIO_MEASURE(7850.),#584);
#586=PROPERTY_DEFINITION_REPRESENTATION(#591,#588);
#587=PROPERTY_DEFINITION_REPRESENTATION(#592,#589);
#588=REPRESENTATION('material name',(#590),#955);
#589=REPRESENTATION('density',(#585),#955);
#590=DESCRIPTIVE_REPRESENTATION_ITEM('Steel','Steel');
#591=PROPERTY_DEFINITION('material property','material name',#965);
#592=PROPERTY_DEFINITION('material property','density of part',#965);
#593=AXIS2_PLACEMENT_3D('',#793,#638,#639);
#594=AXIS2_PLACEMENT_3D('',#794,#640,#641);
#595=AXIS2_PLACEMENT_3D('',#799,#643,#644);
#596=AXIS2_PLACEMENT_3D('',#802,#646,#647);
#597=AXIS2_PLACEMENT_3D('',#803,#648,#649);
#598=AXIS2_PLACEMENT_3D('',#808,#652,#653);
#599=AXIS2_PLACEMENT_3D('',#809,#654,#655);
#600=AXIS2_PLACEMENT_3D('',#813,#657,#658);
#601=AXIS2_PLACEMENT_3D('',#817,#660,#661);
#602=AXIS2_PLACEMENT_3D('',#818,#662,#663);
#603=AXIS2_PLACEMENT_3D('',#819,#664,#665);
#604=AXIS2_PLACEMENT_3D('',#822,#668,#669);
#605=AXIS2_PLACEMENT_3D('',#828,#673,#674);
#606=AXIS2_PLACEMENT_3D('',#832,#677,#678);
#607=AXIS2_PLACEMENT_3D('',#834,#679,#680);
#608=AXIS2_PLACEMENT_3D('',#835,#681,#682);
#609=AXIS2_PLACEMENT_3D('',#837,#683,#684);
#610=AXIS2_PLACEMENT_3D('',#838,#685,#686);
#611=AXIS2_PLACEMENT_3D('',#839,#687,#688);
#612=AXIS2_PLACEMENT_3D('',#844,#691,#692);
#613=AXIS2_PLACEMENT_3D('',#877,#709,#710);
#614=AXIS2_PLACEMENT_3D('',#879,#712,#713);
#615=AXIS2_PLACEMENT_3D('',#881,#714,#715);
#616=AXIS2_PLACEMENT_3D('',#882,#716,#717);
#617=AXIS2_PLACEMENT_3D('',#888,#721,#722);
#618=AXIS2_PLACEMENT_3D('',#892,#725,#726);
#619=AXIS2_PLACEMENT_3D('',#896,#729,#730);
#620=AXIS2_PLACEMENT_3D('',#898,#732,#733);
#621=AXIS2_PLACEMENT_3D('',#899,#734,#735);
#622=AXIS2_PLACEMENT_3D('',#905,#739,#740);
#623=AXIS2_PLACEMENT_3D('',#909,#743,#744);
#624=AXIS2_PLACEMENT_3D('',#913,#747,#748);
#625=AXIS2_PLACEMENT_3D('',#915,#750,#751);
#626=AXIS2_PLACEMENT_3D('',#916,#752,#753);
#627=AXIS2_PLACEMENT_3D('',#922,#757,#758);
#628=AXIS2_PLACEMENT_3D('',#926,#761,#762);
#629=AXIS2_PLACEMENT_3D('',#930,#765,#766);
#630=AXIS2_PLACEMENT_3D('',#932,#768,#769);
#631=AXIS2_PLACEMENT_3D('',#933,#770,#771);
#632=AXIS2_PLACEMENT_3D('',#939,#775,#776);
#633=AXIS2_PLACEMENT_3D('',#943,#779,#780);
#634=AXIS2_PLACEMENT_3D('',#947,#783,#784);
#635=AXIS2_PLACEMENT_3D('',#949,#786,#787);
#636=AXIS2_PLACEMENT_3D('',#950,#788,#789);
#637=AXIS2_PLACEMENT_3D('',#952,#791,#792);
#638=DIRECTION('axis',(0.,0.,1.));
#639=DIRECTION('refdir',(1.,0.,0.));
#640=DIRECTION('center_axis',(-1.,0.,0.));
#641=DIRECTION('ref_axis',(0.,-0.707106781186548,-0.707106781186547));
#642=DIRECTION('',(1.,0.,0.));
#643=DIRECTION('center_axis',(-0.707106781186549,-0.707106781186546,0.));
#644=DIRECTION('ref_axis',(0.707106781186546,-0.707106781186549,0.));
#645=DIRECTION('',(-1.,0.,0.));
#646=DIRECTION('center_axis',(0.707106781186548,-0.707106781186548,0.));
#647=DIRECTION('ref_axis',(0.707106781186548,0.707106781186548,0.));
#648=DIRECTION('center_axis',(0.,-1.,0.));
#649=DIRECTION('ref_axis',(0.707106781186546,0.,-0.707106781186549));
#650=DIRECTION('',(0.,-1.,0.));
#651=DIRECTION('',(0.,1.,0.));
#652=DIRECTION('center_axis',(0.707106781186548,-0.707106781186548,0.));
#653=DIRECTION('ref_axis',(0.707106781186547,0.707106781186547,0.));
#654=DIRECTION('center_axis',(0.,-1.,0.));
#655=DIRECTION('ref_axis',(-0.963714928210763,0.,-0.266933581895803));
#656=DIRECTION('',(0.,-1.,0.));
#657=DIRECTION('center_axis',(0.,1.,0.));
#658=DIRECTION('ref_axis',(-0.963714928210763,0.,-0.266933581895803));
#659=DIRECTION('',(0.,1.,0.));
#660=DIRECTION('center_axis',(0.,-1.,0.));
#661=DIRECTION('ref_axis',(-0.963714928210763,0.,-0.266933581895803));
#662=DIRECTION('center_axis',(0.707106781186546,0.707106781186549,0.));
#663=DIRECTION('ref_axis',(0.707106781186549,-0.707106781186546,0.));
#664=DIRECTION('center_axis',(-1.,0.,0.));
#665=DIRECTION('ref_axis',(0.,0.707106781186546,-0.707106781186549));
#666=DIRECTION('',(1.,0.,0.));
#667=DIRECTION('',(-1.,0.,0.));
#668=DIRECTION('center_axis',(0.,1.,0.));
#669=DIRECTION('ref_axis',(-1.,0.,0.));
#670=DIRECTION('',(-0.857492925712544,0.,-0.514495755427527));
#671=DIRECTION('',(-1.,0.,0.));
#672=DIRECTION('',(0.,0.,1.));
#673=DIRECTION('center_axis',(-0.514495755427527,0.,0.857492925712544));
#674=DIRECTION('ref_axis',(0.857492925712544,0.,0.514495755427527));
#675=DIRECTION('',(0.857492925712544,0.,0.514495755427527));
#676=DIRECTION('',(0.,1.,0.));
#677=DIRECTION('center_axis',(0.,0.,-1.));
#678=DIRECTION('ref_axis',(1.,0.,0.));
#679=DIRECTION('center_axis',(0.,0.,-1.));
#680=DIRECTION('ref_axis',(1.,0.,0.));
#681=DIRECTION('center_axis',(0.,0.,1.));
#682=DIRECTION('ref_axis',(1.,0.,0.));
#683=DIRECTION('center_axis',(0.,-1.,0.));
#684=DIRECTION('ref_axis',(-1.,0.,0.));
#685=DIRECTION('center_axis',(0.,0.,-1.));
#686=DIRECTION('ref_axis',(1.,0.,0.));
#687=DIRECTION('center_axis',(0.,0.,1.));
#688=DIRECTION('ref_axis',(1.,0.,0.));
#689=DIRECTION('',(-1.,0.,0.));
#690=DIRECTION('',(0.,1.,0.));
#691=DIRECTION('center_axis',(0.,0.,-1.));
#692=DIRECTION('ref_axis',(-1.,0.,0.));
#693=DIRECTION('',(1.,0.,0.));
#694=DIRECTION('',(0.,-1.,0.));
#695=DIRECTION('',(-1.,0.,0.));
#696=DIRECTION('',(0.,1.,0.));
#697=DIRECTION('',(0.,-1.,0.));
#698=DIRECTION('',(-1.,0.,0.));
#699=DIRECTION('',(0.,1.,0.));
#700=DIRECTION('',(1.,0.,0.));
#701=DIRECTION('',(0.,1.,0.));
#702=DIRECTION('',(1.,0.,0.));
#703=DIRECTION('',(0.,-1.,0.));
#704=DIRECTION('',(-1.,0.,0.));
#705=DIRECTION('',(-1.,0.,0.));
#706=DIRECTION('',(0.,1.,0.));
#707=DIRECTION('',(1.,0.,0.));
#708=DIRECTION('',(0.,-1.,0.));
#709=DIRECTION('center_axis',(0.,-1.,0.));
#710=DIRECTION('ref_axis',(1.,0.,0.));
#711=DIRECTION('',(0.,0.,1.));
#712=DIRECTION('center_axis',(0.,0.,1.));
#713=DIRECTION('ref_axis',(1.,0.,0.));
#714=DIRECTION('center_axis',(0.,0.,1.));
#715=DIRECTION('ref_axis',(-1.,0.,0.));
#716=DIRECTION('center_axis',(0.,-1.,0.));
#717=DIRECTION('ref_axis',(1.,0.,0.));
#718=DIRECTION('',(0.,0.,1.));
#719=DIRECTION('',(1.,0.,0.));
#720=DIRECTION('',(0.,0.,1.));
#721=DIRECTION('center_axis',(-1.,0.,0.));
#722=DIRECTION('ref_axis',(0.,-1.,0.));
#723=DIRECTION('',(0.,-1.,0.));
#724=DIRECTION('',(0.,0.,1.));
#725=DIRECTION('center_axis',(0.,1.,0.));
#726=DIRECTION('ref_axis',(-1.,0.,0.));
#727=DIRECTION('',(-1.,0.,0.));
#728=DIRECTION('',(0.,0.,1.));
#729=DIRECTION('center_axis',(1.,0.,0.));
#730=DIRECTION('ref_axis',(0.,1.,0.));
#731=DIRECTION('',(0.,1.,0.));
#732=DIRECTION('center_axis',(0.,0.,1.));
#733=DIRECTION('ref_axis',(1.,0.,0.));
#734=DIRECTION('center_axis',(-1.,0.,0.));
#735=DIRECTION('ref_axis',(0.,-1.,0.));
#736=DIRECTION('',(0.,0.,1.));
#737=DIRECTION('',(0.,-1.,0.));
#738=DIRECTION('',(0.,0.,1.));
#739=DIRECTION('center_axis',(0.,1.,0.));
#740=DIRECTION('ref_axis',(-1.,0.,0.));
#741=DIRECTION('',(-1.,0.,0.));
#742=DIRECTION('',(0.,0.,1.));
#743=DIRECTION('center_axis',(1.,0.,0.));
#744=DIRECTION('ref_axis',(0.,1.,0.));
#745=DIRECTION('',(0.,1.,0.));
#746=DIRECTION('',(0.,0.,1.));
#747=DIRECTION('center_axis',(0.,-1.,0.));
#748=DIRECTION('ref_axis',(1.,0.,0.));
#749=DIRECTION('',(1.,0.,0.));
#750=DIRECTION('center_axis',(0.,0.,1.));
#751=DIRECTION('ref_axis',(1.,0.,0.));
#752=DIRECTION('center_axis',(1.,0.,0.));
#753=DIRECTION('ref_axis',(0.,1.,0.));
#754=DIRECTION('',(0.,0.,1.));
#755=DIRECTION('',(0.,1.,0.));
#756=DIRECTION('',(0.,0.,1.));
#757=DIRECTION('center_axis',(0.,-1.,0.));
#758=DIRECTION('ref_axis',(1.,0.,0.));
#759=DIRECTION('',(1.,0.,0.));
#760=DIRECTION('',(0.,0.,1.));
#761=DIRECTION('center_axis',(-1.,0.,0.));
#762=DIRECTION('ref_axis',(0.,-1.,0.));
#763=DIRECTION('',(0.,-1.,0.));
#764=DIRECTION('',(0.,0.,1.));
#765=DIRECTION('center_axis',(0.,1.,0.));
#766=DIRECTION('ref_axis',(-1.,0.,0.));
#767=DIRECTION('',(-1.,0.,0.));
#768=DIRECTION('center_axis',(0.,0.,1.));
#769=DIRECTION('ref_axis',(1.,0.,0.));
#770=DIRECTION('center_axis',(0.,1.,0.));
#771=DIRECTION('ref_axis',(-1.,0.,0.));
#772=DIRECTION('',(0.,0.,1.));
#773=DIRECTION('',(-1.,0.,0.));
#774=DIRECTION('',(0.,0.,1.));
#775=DIRECTION('center_axis',(1.,0.,0.));
#776=DIRECTION('ref_axis',(0.,1.,0.));
#777=DIRECTION('',(0.,1.,0.));
#778=DIRECTION('',(0.,0.,1.));
#779=DIRECTION('center_axis',(0.,-1.,0.));
#780=DIRECTION('ref_axis',(1.,0.,0.));
#781=DIRECTION('',(1.,0.,0.));
#782=DIRECTION('',(0.,0.,1.));
#783=DIRECTION('center_axis',(-1.,0.,0.));
#784=DIRECTION('ref_axis',(0.,-1.,0.));
#785=DIRECTION('',(0.,-1.,0.));
#786=DIRECTION('center_axis',(0.,0.,1.));
#787=DIRECTION('ref_axis',(1.,0.,0.));
#788=DIRECTION('center_axis',(0.,0.,-1.));
#789=DIRECTION('ref_axis',(-1.,0.,0.));
#790=DIRECTION('',(0.,0.,-1.));
#791=DIRECTION('center_axis',(1.,0.,0.));
#792=DIRECTION('ref_axis',(0.,1.,0.));
#793=CARTESIAN_POINT('',(0.,0.,0.));
#794=CARTESIAN_POINT('Origin',(11.25,1.,-2.));
#795=CARTESIAN_POINT('',(-21.3896827017182,1.,-3.));
#796=CARTESIAN_POINT('',(44.,1.,-3.));
#797=CARTESIAN_POINT('',(11.25,1.,-3.));
#798=CARTESIAN_POINT('',(45.,0.,-2.));
#799=CARTESIAN_POINT('Origin',(44.,1.,-2.));
#800=CARTESIAN_POINT('',(-22.3896827017182,0.,-2.));
#801=CARTESIAN_POINT('',(11.25,0.,-2.));
#802=CARTESIAN_POINT('Origin',(-21.3896827017182,1.,-2.));
#803=CARTESIAN_POINT('Origin',(44.,11.25,-2.));
#804=CARTESIAN_POINT('',(45.,45.,-2.));
#805=CARTESIAN_POINT('',(45.,11.25,-2.));
#806=CARTESIAN_POINT('',(44.,44.,-3.));
#807=CARTESIAN_POINT('',(44.,11.25,-3.));
#808=CARTESIAN_POINT('Origin',(44.,44.,-2.));
#809=CARTESIAN_POINT('Origin',(-21.3896827017182,28.125,-2.));
#810=CARTESIAN_POINT('',(-21.3896827017182,44.,-3.));
#811=CARTESIAN_POINT('',(-21.3896827017182,28.125,-3.));
#812=CARTESIAN_POINT('',(-21.9041784571458,-2.22044604925031E-15,-1.14250707428746));
#813=CARTESIAN_POINT('Origin',(-21.3896827017182,0.,-2.));
#814=CARTESIAN_POINT('',(-21.9041784571458,45.,-1.14250707428746));
#815=CARTESIAN_POINT('',(-21.9041784571458,28.125,-1.14250707428746));
#816=CARTESIAN_POINT('',(-22.3896827017182,45.,-2.));
#817=CARTESIAN_POINT('Origin',(-21.3896827017182,45.,-2.));
#818=CARTESIAN_POINT('Origin',(-21.3896827017182,44.,-2.));
#819=CARTESIAN_POINT('Origin',(33.75,44.,-2.));
#820=CARTESIAN_POINT('',(33.75,45.,-2.));
#821=CARTESIAN_POINT('',(33.75,44.,-3.));
#822=CARTESIAN_POINT('Origin',(45.,45.,0.));
#823=CARTESIAN_POINT('',(-15.,45.,3.));
#824=CARTESIAN_POINT('',(3.89705882352941,45.,14.3382352941176));
#825=CARTESIAN_POINT('',(45.,45.,3.));
#826=CARTESIAN_POINT('',(45.,45.,3.));
#827=CARTESIAN_POINT('',(45.,45.,0.));
#828=CARTESIAN_POINT('Origin',(-20.,33.75,0.));
#829=CARTESIAN_POINT('',(-15.,0.,3.));
#830=CARTESIAN_POINT('',(-12.6470588235294,-2.22044604925031E-15,4.41176470588235));
#831=CARTESIAN_POINT('',(-15.,33.75,3.));
#832=CARTESIAN_POINT('Origin',(22.5,22.5,-3.));
#833=CARTESIAN_POINT('',(10.5,22.5,-3.));
#834=CARTESIAN_POINT('Origin',(22.5,22.5,-3.));
#835=CARTESIAN_POINT('Origin',(22.5,22.5,-2.));
#836=CARTESIAN_POINT('',(11.5,22.5,-2.));
#837=CARTESIAN_POINT('Origin',(10.5,22.5,-2.));
#838=CARTESIAN_POINT('Origin',(22.5,22.5,-2.));
#839=CARTESIAN_POINT('Origin',(22.5,22.5,3.));
#840=CARTESIAN_POINT('',(45.,0.,3.));
#841=CARTESIAN_POINT('',(0.,0.,3.));
#842=CARTESIAN_POINT('',(45.,0.,3.));
#843=CARTESIAN_POINT('',(28.875,22.5,3.));
#844=CARTESIAN_POINT('Origin',(22.5,22.5,3.));
#845=CARTESIAN_POINT('',(35.0000005215406,39.0000005811453,3.));
#846=CARTESIAN_POINT('',(39.0000005811453,39.0000005811453,3.));
#847=CARTESIAN_POINT('',(30.7500002905726,39.0000005811453,3.));
#848=CARTESIAN_POINT('',(39.0000005811453,35.0000005215406,3.));
#849=CARTESIAN_POINT('',(39.0000005811453,28.7500002607703,3.));
#850=CARTESIAN_POINT('',(35.0000005215406,35.0000005215406,3.));
#851=CARTESIAN_POINT('',(28.7500002607703,35.0000005215406,3.));
#852=CARTESIAN_POINT('',(35.0000005215406,30.7500002905726,3.));
#853=CARTESIAN_POINT('',(10.0000001490116,39.0000005215406,3.));
#854=CARTESIAN_POINT('',(10.0000001490116,35.0000005215406,3.));
#855=CARTESIAN_POINT('',(10.0000001490116,28.7500002607703,3.));
#856=CARTESIAN_POINT('',(6.00000014901161,35.0000005215406,3.));
#857=CARTESIAN_POINT('',(14.2500000745058,35.0000005215406,3.));
#858=CARTESIAN_POINT('',(6.00000014901161,39.0000005215406,3.));
#859=CARTESIAN_POINT('',(6.00000014901161,30.7500002607703,3.));
#860=CARTESIAN_POINT('',(16.2500000745058,39.0000005215406,3.));
#861=CARTESIAN_POINT('',(35.0000005215406,6.00000014901161,3.));
#862=CARTESIAN_POINT('',(35.0000005215406,10.0000001490116,3.));
#863=CARTESIAN_POINT('',(35.0000005215406,16.2500000745058,3.));
#864=CARTESIAN_POINT('',(39.0000005215406,10.0000001490116,3.));
#865=CARTESIAN_POINT('',(30.7500002607703,10.0000001490116,3.));
#866=CARTESIAN_POINT('',(39.0000005215406,6.00000014901161,3.));
#867=CARTESIAN_POINT('',(39.0000005215406,14.2500000745058,3.));
#868=CARTESIAN_POINT('',(28.7500002607703,6.00000014901161,3.));
#869=CARTESIAN_POINT('',(10.0000001490116,6.00000014901161,3.));
#870=CARTESIAN_POINT('',(6.00000014901161,6.00000014901161,3.));
#871=CARTESIAN_POINT('',(14.2500000745058,6.00000014901161,3.));
#872=CARTESIAN_POINT('',(6.00000014901161,10.0000001490116,3.));
#873=CARTESIAN_POINT('',(6.00000014901161,16.2500000745058,3.));
#874=CARTESIAN_POINT('',(10.0000001490116,10.0000001490116,3.));
#875=CARTESIAN_POINT('',(16.2500000745058,10.0000001490116,3.));
#876=CARTESIAN_POINT('',(10.0000001490116,14.2500000745058,3.));
#877=CARTESIAN_POINT('Origin',(0.,0.,0.));
#878=CARTESIAN_POINT('',(45.,0.,0.));
#879=CARTESIAN_POINT('Origin',(22.5,22.5,-2.));
#880=CARTESIAN_POINT('',(28.875,22.5,-2.));
#881=CARTESIAN_POINT('Origin',(22.5,22.5,-2.));
#882=CARTESIAN_POINT('Origin',(6.00000014901161,6.00000014901161,3.));
#883=CARTESIAN_POINT('',(10.0000001490116,6.00000014901161,6.));
#884=CARTESIAN_POINT('',(10.0000001490116,6.00000014901161,3.));
#885=CARTESIAN_POINT('',(6.00000014901161,6.00000014901161,6.));
#886=CARTESIAN_POINT('',(6.00000014901161,6.00000014901161,6.));
#887=CARTESIAN_POINT('',(6.00000014901161,6.00000014901161,3.));
#888=CARTESIAN_POINT('Origin',(6.00000014901161,10.0000001490116,3.));
#889=CARTESIAN_POINT('',(6.00000014901161,10.0000001490116,6.));
#890=CARTESIAN_POINT('',(6.00000014901161,10.0000001490116,6.));
#891=CARTESIAN_POINT('',(6.00000014901161,10.0000001490116,3.));
#892=CARTESIAN_POINT('Origin',(10.0000001490116,10.0000001490116,3.));
#893=CARTESIAN_POINT('',(10.0000001490116,10.0000001490116,6.));
#894=CARTESIAN_POINT('',(10.0000001490116,10.0000001490116,6.));
#895=CARTESIAN_POINT('',(10.0000001490116,10.0000001490116,3.));
#896=CARTESIAN_POINT('Origin',(10.0000001490116,6.00000014901161,3.));
#897=CARTESIAN_POINT('',(10.0000001490116,6.00000014901161,6.));
#898=CARTESIAN_POINT('Origin',(8.00000014901161,8.00000014901161,6.));
#899=CARTESIAN_POINT('Origin',(35.0000005215406,10.0000001490116,3.));
#900=CARTESIAN_POINT('',(35.0000005215406,6.00000014901161,6.));
#901=CARTESIAN_POINT('',(35.0000005215406,6.00000014901161,3.));
#902=CARTESIAN_POINT('',(35.0000005215406,10.0000001490116,6.));
#903=CARTESIAN_POINT('',(35.0000005215406,6.00000014901161,6.));
#904=CARTESIAN_POINT('',(35.0000005215406,10.0000001490116,3.));
#905=CARTESIAN_POINT('Origin',(39.0000005215406,10.0000001490116,3.));
#906=CARTESIAN_POINT('',(39.0000005215406,10.0000001490116,6.));
#907=CARTESIAN_POINT('',(35.0000005215406,10.0000001490116,6.));
#908=CARTESIAN_POINT('',(39.0000005215406,10.0000001490116,3.));
#909=CARTESIAN_POINT('Origin',(39.0000005215406,6.00000014901161,3.));
#910=CARTESIAN_POINT('',(39.0000005215406,6.00000014901161,6.));
#911=CARTESIAN_POINT('',(39.0000005215406,10.0000001490116,6.));
#912=CARTESIAN_POINT('',(39.0000005215406,6.00000014901161,3.));
#913=CARTESIAN_POINT('Origin',(35.0000005215406,6.00000014901161,3.));
#914=CARTESIAN_POINT('',(39.0000005215406,6.00000014901161,6.));
#915=CARTESIAN_POINT('Origin',(37.0000005215406,8.00000014901161,6.));
#916=CARTESIAN_POINT('Origin',(10.0000001490116,35.0000005215406,3.));
#917=CARTESIAN_POINT('',(10.0000001490116,39.0000005215406,6.));
#918=CARTESIAN_POINT('',(10.0000001490116,39.0000005215406,3.));
#919=CARTESIAN_POINT('',(10.0000001490116,35.0000005215406,6.));
#920=CARTESIAN_POINT('',(10.0000001490116,39.0000005215406,6.));
#921=CARTESIAN_POINT('',(10.0000001490116,35.0000005215406,3.));
#922=CARTESIAN_POINT('Origin',(6.00000014901161,35.0000005215406,3.));
#923=CARTESIAN_POINT('',(6.00000014901161,35.0000005215406,6.));
#924=CARTESIAN_POINT('',(10.0000001490116,35.0000005215406,6.));
#925=CARTESIAN_POINT('',(6.00000014901161,35.0000005215406,3.));
#926=CARTESIAN_POINT('Origin',(6.00000014901161,39.0000005215406,3.));
#927=CARTESIAN_POINT('',(6.00000014901161,39.0000005215406,6.));
#928=CARTESIAN_POINT('',(6.00000014901161,35.0000005215406,6.));
#929=CARTESIAN_POINT('',(6.00000014901161,39.0000005215406,3.));
#930=CARTESIAN_POINT('Origin',(10.0000001490116,39.0000005215406,3.));
#931=CARTESIAN_POINT('',(6.00000014901161,39.0000005215406,6.));
#932=CARTESIAN_POINT('Origin',(8.00000014901161,37.0000005215406,6.));
#933=CARTESIAN_POINT('Origin',(39.0000005811453,39.0000005811453,3.));
#934=CARTESIAN_POINT('',(35.0000005215406,39.0000005811453,6.));
#935=CARTESIAN_POINT('',(35.0000005215406,39.0000005811453,3.));
#936=CARTESIAN_POINT('',(39.0000005811453,39.0000005811453,6.));
#937=CARTESIAN_POINT('',(39.0000005811453,39.0000005811453,6.));
#938=CARTESIAN_POINT('',(39.0000005811453,39.0000005811453,3.));
#939=CARTESIAN_POINT('Origin',(39.0000005811453,35.0000005215406,3.));
#940=CARTESIAN_POINT('',(39.0000005811453,35.0000005215406,6.));
#941=CARTESIAN_POINT('',(39.0000005811453,35.0000005215406,6.));
#942=CARTESIAN_POINT('',(39.0000005811453,35.0000005215406,3.));
#943=CARTESIAN_POINT('Origin',(35.0000005215406,35.0000005215406,3.));
#944=CARTESIAN_POINT('',(35.0000005215406,35.0000005215406,6.));
#945=CARTESIAN_POINT('',(35.0000005215406,35.0000005215406,6.));
#946=CARTESIAN_POINT('',(35.0000005215406,35.0000005215406,3.));
#947=CARTESIAN_POINT('Origin',(35.0000005215406,39.0000005811453,3.));
#948=CARTESIAN_POINT('',(35.0000005215406,39.0000005811453,6.));
#949=CARTESIAN_POINT('Origin',(37.000000551343,37.000000551343,6.));
#950=CARTESIAN_POINT('Origin',(22.5,22.5,3.));
#951=CARTESIAN_POINT('',(28.875,22.5,3.));
#952=CARTESIAN_POINT('Origin',(45.,0.,0.));
#953=UNCERTAINTY_MEASURE_WITH_UNIT(LENGTH_MEASURE(0.01),#957,
'DISTANCE_ACCURACY_VALUE',
'Maximum model space distance between geometric entities at asserted c
onnectivities');
#954=UNCERTAINTY_MEASURE_WITH_UNIT(LENGTH_MEASURE(0.01),#957,
'DISTANCE_ACCURACY_VALUE',
'Maximum model space distance between geometric entities at asserted c
onnectivities');
#955=(
GEOMETRIC_REPRESENTATION_CONTEXT(3)
GLOBAL_UNCERTAINTY_ASSIGNED_CONTEXT((#953))
GLOBAL_UNIT_ASSIGNED_CONTEXT((#957,#959,#960))
REPRESENTATION_CONTEXT('','3D')
);
#956=(
GEOMETRIC_REPRESENTATION_CONTEXT(3)
GLOBAL_UNCERTAINTY_ASSIGNED_CONTEXT((#954))
GLOBAL_UNIT_ASSIGNED_CONTEXT((#957,#959,#960))
REPRESENTATION_CONTEXT('','3D')
);
#957=(
LENGTH_UNIT()
NAMED_UNIT(*)
SI_UNIT(.MILLI.,.METRE.)
);
#958=(
LENGTH_UNIT()
NAMED_UNIT(*)
SI_UNIT($,.METRE.)
);
#959=(
NAMED_UNIT(*)
PLANE_ANGLE_UNIT()
SI_UNIT($,.RADIAN.)
);
#960=(
NAMED_UNIT(*)
SI_UNIT($,.STERADIAN.)
SOLID_ANGLE_UNIT()
);
#961=SHAPE_DEFINITION_REPRESENTATION(#962,#963);
#962=PRODUCT_DEFINITION_SHAPE('',$,#965);
#963=SHAPE_REPRESENTATION('',(#593),#955);
#964=PRODUCT_DEFINITION_CONTEXT('part definition',#969,'design');
#965=PRODUCT_DEFINITION('endCapSpecial','endCapSpecial v2',#966,#964);
#966=PRODUCT_DEFINITION_FORMATION('',$,#971);
#967=PRODUCT_RELATED_PRODUCT_CATEGORY('endCapSpecial v2',
'endCapSpecial v2',(#971));
#968=APPLICATION_PROTOCOL_DEFINITION('international standard',
'automotive_design',2009,#969);
#969=APPLICATION_CONTEXT(
'Core Data for Automotive Mechanical Design Process');
#970=PRODUCT_CONTEXT('part definition',#969,'mechanical');
#971=PRODUCT('endCapSpecial','endCapSpecial v2',$,(#970));
#972=PRESENTATION_STYLE_ASSIGNMENT((#973));
#973=SURFACE_STYLE_USAGE(.BOTH.,#974);
#974=SURFACE_SIDE_STYLE('',(#975));
#975=SURFACE_STYLE_FILL_AREA(#976);
#976=FILL_AREA_STYLE('Steel - Satin',(#977));
#977=FILL_AREA_STYLE_COLOUR('Steel - Satin',#978);
#978=COLOUR_RGB('Steel - Satin',0.627450980392157,0.627450980392157,0.627450980392157);
ENDSEC;
END-ISO-10303-21;
