ISO-10303-21;
HEADER;

/* File generated by HOOPS Exchange Version 26.1.1 */

FILE_DESCRIPTION(('HOOPS Exchange Step'),'2;1');

FILE_NAME('/tmp/xomp1vj80xb.step',
'2026-04-06T19:27:06+00:00',
('celery'),
('Unknown organisation'),
'HOOPS Exchange 2026.1',
'HOOPS Exchange',
'Unknown authorisation');

FILE_SCHEMA( ('AP203_CONFIGURATION_CONTROLLED_3D_DESIGN_OF_MECHANICAL_PARTS_AND_ASSEMBLIES_MIM_LF') );

ENDSEC;

DATA;
#3=(NAMED_UNIT(*)PLANE_ANGLE_UNIT()SI_UNIT($,.RADIAN.));
#4=PLANE_ANGLE_MEASURE_WITH_UNIT(PLANE_ANGLE_MEASURE(0.0174532925),#3);
#5=(CONVERSION_BASED_UNIT('DEGREE',#4)NAMED_UNIT(#6)PLANE_ANGLE_UNIT());
#6=DIMENSIONAL_EXPONENTS(0.,0.,0.,0.,0.,0.,0.);
#7=(NAMED_UNIT(*)SI_UNIT($,.STERADIAN.)SOLID_ANGLE_UNIT());
#8=(LENGTH_UNIT()NAMED_UNIT(*)SI_UNIT(.MILLI.,.METRE.));
#9=LENGTH_MEASURE_WITH_UNIT(LENGTH_MEASURE(25.400000),#8);
#10=(CONVERSION_BASED_UNIT('INCH',#9)LENGTH_UNIT()NAMED_UNIT(#11));
#11=DIMENSIONAL_EXPONENTS(1.,0.,0.,0.,0.,0.,0.);
#12=UNCERTAINTY_MEASURE_WITH_UNIT(LENGTH_MEASURE(1.000000E-05),#10,'DISTANCE_ACCURACY_VALUE','Maximum Tolerance applied to model');
#13=(GEOMETRIC_REPRESENTATION_CONTEXT(3)GLOBAL_UNCERTAINTY_ASSIGNED_CONTEXT((#12))GLOBAL_UNIT_ASSIGNED_CONTEXT((#10,#5,#7))REPRESENTATION_CONTEXT('','xom0rgwupa9'));
#15=CARTESIAN_POINT('',(0.,0.,0.));
#16=DIRECTION('',(0.,0.,1.));
#17=DIRECTION('',(1.,0.,0.));
#18=AXIS2_PLACEMENT_3D('',#15,#16,#17);
#29=(NAMED_UNIT(*)PLANE_ANGLE_UNIT()SI_UNIT($,.RADIAN.));
#30=PLANE_ANGLE_MEASURE_WITH_UNIT(PLANE_ANGLE_MEASURE(0.0174532925),#29);
#31=(CONVERSION_BASED_UNIT('DEGREE',#30)NAMED_UNIT(#32)PLANE_ANGLE_UNIT());
#32=DIMENSIONAL_EXPONENTS(0.,0.,0.,0.,0.,0.,0.);
#33=(NAMED_UNIT(*)SI_UNIT($,.STERADIAN.)SOLID_ANGLE_UNIT());
#34=(LENGTH_UNIT()NAMED_UNIT(*)SI_UNIT(.MILLI.,.METRE.));
#35=LENGTH_MEASURE_WITH_UNIT(LENGTH_MEASURE(25.400000),#34);
#36=(CONVERSION_BASED_UNIT('INCH',#35)LENGTH_UNIT()NAMED_UNIT(#37));
#37=DIMENSIONAL_EXPONENTS(1.,0.,0.,0.,0.,0.,0.);
#38=UNCERTAINTY_MEASURE_WITH_UNIT(LENGTH_MEASURE(1.000000E-05),#36,'DISTANCE_ACCURACY_VALUE','Maximum Tolerance applied to model');
#39=(GEOMETRIC_REPRESENTATION_CONTEXT(3)GLOBAL_UNCERTAINTY_ASSIGNED_CONTEXT((#38))GLOBAL_UNIT_ASSIGNED_CONTEXT((#36,#31,#33))REPRESENTATION_CONTEXT('','Default'));
#51=CARTESIAN_POINT('',(0.,0.,0.));
#52=DIRECTION('',(0.,0.,1.));
#53=DIRECTION('',(1.,0.,-0.));
#54=AXIS2_PLACEMENT_3D('',#51,#52,#53);
#55=ITEM_DEFINED_TRANSFORMATION('','',#54,#18);
#56=(REPRESENTATION_RELATIONSHIP('','',#41,#19)REPRESENTATION_RELATIONSHIP_WITH_TRANSFORMATION(#55)SHAPE_REPRESENTATION_RELATIONSHIP());
#57=NEXT_ASSEMBLY_USAGE_OCCURRENCE('Default_1','Default','Default',#28,#50,$);
#58=PRODUCT_DEFINITION_SHAPE('','',#57);
#59=CONTEXT_DEPENDENT_SHAPE_REPRESENTATION(#56,#58);
#61=CARTESIAN_POINT('',(0.5,0.062,0.3));
#62=DIRECTION('',(0.,-1.,0.));
#63=DIRECTION('',(1.,0.,0.));
#64=AXIS2_PLACEMENT_3D('',#61,#62,#63);
#65=PLANE('',#64);
#66=CARTESIAN_POINT('',(-0.,0.062,0.1405));
#67=VERTEX_POINT('',#66);
#68=CARTESIAN_POINT('',(-0.,0.062,0.));
#69=DIRECTION('',(0.,1.,0.));
#70=DIRECTION('',(0.,-0.,1.));
#71=AXIS2_PLACEMENT_3D('',#68,#69,#70);
#72=CIRCLE('',#71,0.1405);
#73=EDGE_CURVE('',#67,#67,#72,.T.);
#74=ORIENTED_EDGE('',*,*,#73,.F.);
#75=EDGE_LOOP('',(#74));
#76=FACE_BOUND('',#75,.T.);
#77=CARTESIAN_POINT('',(-0.,0.062,-0.3));
#78=VERTEX_POINT('',#77);
#79=CARTESIAN_POINT('',(-0.38,0.062,-0.3));
#80=VERTEX_POINT('',#79);
#81=CARTESIAN_POINT('',(0.,0.062,-0.3));
#82=DIRECTION('',(-1.,-0.,0.));
#83=VECTOR('',#82,0.38);
#84=LINE('',#81,#83);
#85=EDGE_CURVE('',#78,#80,#84,.T.);
#86=ORIENTED_EDGE('',*,*,#85,.T.);
#87=CARTESIAN_POINT('',(-0.38,0.062,0.3));
#88=VERTEX_POINT('',#87);
#89=CARTESIAN_POINT('',(-0.38,0.062,-0.3));
#90=DIRECTION('',(-0.,-0.,1.));
#91=VECTOR('',#90,0.6);
#92=LINE('',#89,#91);
#93=EDGE_CURVE('',#80,#88,#92,.T.);
#94=ORIENTED_EDGE('',*,*,#93,.T.);
#95=CARTESIAN_POINT('',(-0.,0.062,0.3));
#96=VERTEX_POINT('',#95);
#97=CARTESIAN_POINT('',(0.,0.062,0.3));
#98=DIRECTION('',(-1.,-0.,0.));
#99=VECTOR('',#98,0.38);
#100=LINE('',#97,#99);
#101=EDGE_CURVE('',#96,#88,#100,.T.);
#102=ORIENTED_EDGE('',*,*,#101,.F.);
#103=CARTESIAN_POINT('',(-0.,0.062,0.));
#104=DIRECTION('',(0.,-1.,0.));
#105=DIRECTION('',(-1.,-0.,0.));
#106=AXIS2_PLACEMENT_3D('',#103,#104,#105);
#107=CIRCLE('',#106,0.3);
#108=EDGE_CURVE('',#78,#96,#107,.T.);
#109=ORIENTED_EDGE('',*,*,#108,.F.);
#110=EDGE_LOOP('',(#86,#94,#102,#109));
#111=FACE_BOUND('',#110,.T.);
#112=ADVANCED_FACE('',(#76,#111),#65,.F.);
#113=CARTESIAN_POINT('',(-0.39,0.062,0.3));
#114=DIRECTION('',(-1.,0.,0.));
#115=DIRECTION('',(-0.,-1.,0.));
#116=AXIS2_PLACEMENT_3D('',#113,#114,#115);
#117=PLANE('',#116);
#118=CARTESIAN_POINT('',(-0.39,0.072,-0.3));
#119=VERTEX_POINT('',#118);
#120=CARTESIAN_POINT('',(-0.39,0.31,-0.3));
#121=VERTEX_POINT('',#120);
#122=CARTESIAN_POINT('',(-0.39,0.072,-0.3));
#123=DIRECTION('',(0.,1.,0.));
#124=VECTOR('',#123,0.238);
#125=LINE('',#122,#124);
#126=EDGE_CURVE('',#119,#121,#125,.T.);
#127=ORIENTED_EDGE('',*,*,#126,.T.);
#128=CARTESIAN_POINT('',(-0.39,0.31,0.3));
#129=VERTEX_POINT('',#128);
#130=CARTESIAN_POINT('',(-0.39,0.31,-0.3));
#131=DIRECTION('',(-0.,-0.,1.));
#132=VECTOR('',#131,0.6);
#133=LINE('',#130,#132);
#134=EDGE_CURVE('',#121,#129,#133,.T.);
#135=ORIENTED_EDGE('',*,*,#134,.T.);
#136=CARTESIAN_POINT('',(-0.39,0.072,0.3));
#137=VERTEX_POINT('',#136);
#138=CARTESIAN_POINT('',(-0.39,0.072,0.3));
#139=DIRECTION('',(0.,1.,0.));
#140=VECTOR('',#139,0.238);
#141=LINE('',#138,#140);
#142=EDGE_CURVE('',#137,#129,#141,.T.);
#143=ORIENTED_EDGE('',*,*,#142,.F.);
#144=CARTESIAN_POINT('',(-0.39,0.072,0.3));
#145=DIRECTION('',(0.,0.,-1.));
#146=VECTOR('',#145,0.6);
#147=LINE('',#144,#146);
#148=EDGE_CURVE('',#137,#119,#147,.T.);
#149=ORIENTED_EDGE('',*,*,#148,.T.);
#150=EDGE_LOOP('',(#127,#135,#143,#149));
#151=FACE_BOUND('',#150,.T.);
#152=ADVANCED_FACE('',(#151),#117,.F.);
#153=CARTESIAN_POINT('',(-0.39,0.382,0.3));
#154=DIRECTION('',(0.,-1.,0.));
#155=DIRECTION('',(1.,0.,0.));
#156=AXIS2_PLACEMENT_3D('',#153,#154,#155);
#157=PLANE('',#156);
#158=CARTESIAN_POINT('',(-0.462,0.382,0.3));
#159=VERTEX_POINT('',#158);
#160=CARTESIAN_POINT('',(-0.794543894,0.382,0.3));
#161=VERTEX_POINT('',#160);
#162=CARTESIAN_POINT('',(-0.462,0.382,0.3));
#163=DIRECTION('',(-1.,-0.,0.));
#164=VECTOR('',#163,0.332543894);
#165=LINE('',#162,#164);
#166=EDGE_CURVE('',#159,#161,#165,.T.);
#167=ORIENTED_EDGE('',*,*,#166,.F.);
#168=CARTESIAN_POINT('',(-0.462,0.382,-0.3));
#169=VERTEX_POINT('',#168);
#170=CARTESIAN_POINT('',(-0.462,0.382,0.3));
#171=DIRECTION('',(0.,0.,-1.));
#172=VECTOR('',#171,0.6);
#173=LINE('',#170,#172);
#174=EDGE_CURVE('',#159,#169,#173,.T.);
#175=ORIENTED_EDGE('',*,*,#174,.T.);
#176=CARTESIAN_POINT('',(-0.794543894,0.382,-0.3));
#177=VERTEX_POINT('',#176);
#178=CARTESIAN_POINT('',(-0.462,0.382,-0.3));
#179=DIRECTION('',(-1.,-0.,0.));
#180=VECTOR('',#179,0.332543894);
#181=LINE('',#178,#180);
#182=EDGE_CURVE('',#169,#177,#181,.T.);
#183=ORIENTED_EDGE('',*,*,#182,.T.);
#184=CARTESIAN_POINT('',(-0.851980802,0.382,-0.257349398));
#185=VERTEX_POINT('',#184);
#186=CARTESIAN_POINT('',(-0.794543894,0.382,-0.24));
#187=DIRECTION('',(-0.,1.,-0.));
#188=DIRECTION('',(1.,0.,0.));
#189=AXIS2_PLACEMENT_3D('',#186,#187,#188);
#190=CIRCLE('',#189,0.06);
#191=EDGE_CURVE('',#177,#185,#190,.T.);
#192=ORIENTED_EDGE('',*,*,#191,.T.);
#193=CARTESIAN_POINT('',(-0.89,0.382,0.));
#194=VERTEX_POINT('',#193);
#195=CARTESIAN_POINT('',(-0.,0.382,0.));
#196=DIRECTION('',(0.,-1.,0.));
#197=DIRECTION('',(-1.,-0.,0.));
#198=AXIS2_PLACEMENT_3D('',#195,#196,#197);
#199=CIRCLE('',#198,0.89);
#200=EDGE_CURVE('',#194,#185,#199,.T.);
#201=ORIENTED_EDGE('',*,*,#200,.F.);
#202=CARTESIAN_POINT('',(-0.851980802,0.382,0.257349398));
#203=VERTEX_POINT('',#202);
#204=CARTESIAN_POINT('',(-0.,0.382,0.));
#205=DIRECTION('',(0.,-1.,0.));
#206=DIRECTION('',(-1.,-0.,0.));
#207=AXIS2_PLACEMENT_3D('',#204,#205,#206);
#208=CIRCLE('',#207,0.89);
#209=EDGE_CURVE('',#203,#194,#208,.T.);
#210=ORIENTED_EDGE('',*,*,#209,.F.);
#211=CARTESIAN_POINT('',(-0.794543894,0.382,0.24));
#212=DIRECTION('',(-0.,1.,-0.));
#213=DIRECTION('',(1.,0.,0.));
#214=AXIS2_PLACEMENT_3D('',#211,#212,#213);
#215=CIRCLE('',#214,0.06);
#216=EDGE_CURVE('',#203,#161,#215,.T.);
#217=ORIENTED_EDGE('',*,*,#216,.T.);
#218=EDGE_LOOP('',(#167,#175,#183,#192,#201,#210,#217));
#219=FACE_BOUND('',#218,.T.);
#220=ADVANCED_FACE('',(#219),#157,.F.);
#221=CARTESIAN_POINT('',(-0.89,0.32,0.3));
#222=DIRECTION('',(0.,1.,0.));
#223=DIRECTION('',(0.,0.,1.));
#224=AXIS2_PLACEMENT_3D('',#221,#222,#223);
#225=PLANE('',#224);
#226=CARTESIAN_POINT('',(-0.794543894,0.32,-0.3));
#227=VERTEX_POINT('',#226);
#228=CARTESIAN_POINT('',(-0.462,0.32,-0.3));
#229=VERTEX_POINT('',#228);
#230=CARTESIAN_POINT('',(-0.794543894,0.32,-0.3));
#231=DIRECTION('',(1.,0.,-0.));
#232=VECTOR('',#231,0.332543894);
#233=LINE('',#230,#232);
#234=EDGE_CURVE('',#227,#229,#233,.T.);
#235=ORIENTED_EDGE('',*,*,#234,.T.);
#236=CARTESIAN_POINT('',(-0.462,0.32,0.3));
#237=VERTEX_POINT('',#236);
#238=CARTESIAN_POINT('',(-0.462,0.32,-0.3));
#239=DIRECTION('',(-0.,-0.,1.));
#240=VECTOR('',#239,0.6);
#241=LINE('',#238,#240);
#242=EDGE_CURVE('',#229,#237,#241,.T.);
#243=ORIENTED_EDGE('',*,*,#242,.T.);
#244=CARTESIAN_POINT('',(-0.794543894,0.32,0.3));
#245=VERTEX_POINT('',#244);
#246=CARTESIAN_POINT('',(-0.794543894,0.32,0.3));
#247=DIRECTION('',(1.,0.,-0.));
#248=VECTOR('',#247,0.332543894);
#249=LINE('',#246,#248);
#250=EDGE_CURVE('',#245,#237,#249,.T.);
#251=ORIENTED_EDGE('',*,*,#250,.F.);
#252=CARTESIAN_POINT('',(-0.851980802,0.32,0.257349398));
#253=VERTEX_POINT('',#252);
#254=CARTESIAN_POINT('',(-0.794543894,0.32,0.24));
#255=DIRECTION('',(-0.,-1.,-0.));
#256=DIRECTION('',(0.,-0.,1.));
#257=AXIS2_PLACEMENT_3D('',#254,#255,#256);
#258=CIRCLE('',#257,0.06);
#259=EDGE_CURVE('',#245,#253,#258,.T.);
#260=ORIENTED_EDGE('',*,*,#259,.T.);
#261=CARTESIAN_POINT('',(-0.89,0.32,-0.));
#262=VERTEX_POINT('',#261);
#263=CARTESIAN_POINT('',(-0.,0.32,0.));
#264=DIRECTION('',(0.,1.,0.));
#265=DIRECTION('',(0.,-0.,1.));
#266=AXIS2_PLACEMENT_3D('',#263,#264,#265);
#267=CIRCLE('',#266,0.89);
#268=EDGE_CURVE('',#262,#253,#267,.T.);
#269=ORIENTED_EDGE('',*,*,#268,.F.);
#270=CARTESIAN_POINT('',(-0.851980802,0.32,-0.257349398));
#271=VERTEX_POINT('',#270);
#272=CARTESIAN_POINT('',(-0.,0.32,0.));
#273=DIRECTION('',(0.,1.,0.));
#274=DIRECTION('',(0.,-0.,1.));
#275=AXIS2_PLACEMENT_3D('',#272,#273,#274);
#276=CIRCLE('',#275,0.89);
#277=EDGE_CURVE('',#271,#262,#276,.T.);
#278=ORIENTED_EDGE('',*,*,#277,.F.);
#279=CARTESIAN_POINT('',(-0.794543894,0.32,-0.24));
#280=DIRECTION('',(-0.,-1.,-0.));
#281=DIRECTION('',(0.,-0.,1.));
#282=AXIS2_PLACEMENT_3D('',#279,#280,#281);
#283=CIRCLE('',#282,0.06);
#284=EDGE_CURVE('',#271,#227,#283,.T.);
#285=ORIENTED_EDGE('',*,*,#284,.T.);
#286=EDGE_LOOP('',(#235,#243,#251,#260,#269,#278,#285));
#287=FACE_BOUND('',#286,.T.);
#288=ADVANCED_FACE('',(#287),#225,.F.);
#289=CARTESIAN_POINT('',(-0.452,0.32,0.3));
#290=DIRECTION('',(1.,0.,0.));
#291=DIRECTION('',(-0.,1.,0.));
#292=AXIS2_PLACEMENT_3D('',#289,#290,#291);
#293=PLANE('',#292);
#294=CARTESIAN_POINT('',(-0.452,0.31,-0.3));
#295=VERTEX_POINT('',#294);
#296=CARTESIAN_POINT('',(-0.452,0.072,-0.3));
#297=VERTEX_POINT('',#296);
#298=CARTESIAN_POINT('',(-0.452,0.31,-0.3));
#299=DIRECTION('',(0.,-1.,0.));
#300=VECTOR('',#299,0.238);
#301=LINE('',#298,#300);
#302=EDGE_CURVE('',#295,#297,#301,.T.);
#303=ORIENTED_EDGE('',*,*,#302,.T.);
#304=CARTESIAN_POINT('',(-0.452,0.072,0.3));
#305=VERTEX_POINT('',#304);
#306=CARTESIAN_POINT('',(-0.452,0.072,-0.3));
#307=DIRECTION('',(-0.,-0.,1.));
#308=VECTOR('',#307,0.6);
#309=LINE('',#306,#308);
#310=EDGE_CURVE('',#297,#305,#309,.T.);
#311=ORIENTED_EDGE('',*,*,#310,.T.);
#312=CARTESIAN_POINT('',(-0.452,0.31,0.3));
#313=VERTEX_POINT('',#312);
#314=CARTESIAN_POINT('',(-0.452,0.31,0.3));
#315=DIRECTION('',(0.,-1.,0.));
#316=VECTOR('',#315,0.238);
#317=LINE('',#314,#316);
#318=EDGE_CURVE('',#313,#305,#317,.T.);
#319=ORIENTED_EDGE('',*,*,#318,.F.);
#320=CARTESIAN_POINT('',(-0.452,0.31,0.3));
#321=DIRECTION('',(0.,0.,-1.));
#322=VECTOR('',#321,0.6);
#323=LINE('',#320,#322);
#324=EDGE_CURVE('',#313,#295,#323,.T.);
#325=ORIENTED_EDGE('',*,*,#324,.T.);
#326=EDGE_LOOP('',(#303,#311,#319,#325));
#327=FACE_BOUND('',#326,.T.);
#328=ADVANCED_FACE('',(#327),#293,.F.);
#329=CARTESIAN_POINT('',(-0.452,0.,0.3));
#330=DIRECTION('',(0.,1.,0.));
#331=DIRECTION('',(0.,0.,1.));
#332=AXIS2_PLACEMENT_3D('',#329,#330,#331);
#333=PLANE('',#332);
#334=CARTESIAN_POINT('',(-0.,0.,0.1405));
#335=VERTEX_POINT('',#334);
#336=CARTESIAN_POINT('',(-0.,0.,0.));
#337=DIRECTION('',(0.,1.,0.));
#338=DIRECTION('',(0.,-0.,1.));
#339=AXIS2_PLACEMENT_3D('',#336,#337,#338);
#340=CIRCLE('',#339,0.1405);
#341=EDGE_CURVE('',#335,#335,#340,.T.);
#342=ORIENTED_EDGE('',*,*,#341,.T.);
#343=EDGE_LOOP('',(#342));
#344=FACE_BOUND('',#343,.T.);
#345=CARTESIAN_POINT('',(-0.38,0.,0.3));
#346=VERTEX_POINT('',#345);
#347=CARTESIAN_POINT('',(0.,0.,0.3));
#348=VERTEX_POINT('',#347);
#349=CARTESIAN_POINT('',(-0.38,0.,0.3));
#350=DIRECTION('',(1.,0.,-0.));
#351=VECTOR('',#350,0.38);
#352=LINE('',#349,#351);
#353=EDGE_CURVE('',#346,#348,#352,.T.);
#354=ORIENTED_EDGE('',*,*,#353,.F.);
#355=CARTESIAN_POINT('',(-0.38,0.,-0.3));
#356=VERTEX_POINT('',#355);
#357=CARTESIAN_POINT('',(-0.38,0.,0.3));
#358=DIRECTION('',(0.,0.,-1.));
#359=VECTOR('',#358,0.6);
#360=LINE('',#357,#359);
#361=EDGE_CURVE('',#346,#356,#360,.T.);
#362=ORIENTED_EDGE('',*,*,#361,.T.);
#363=CARTESIAN_POINT('',(0.,0.,-0.3));
#364=VERTEX_POINT('',#363);
#365=CARTESIAN_POINT('',(-0.38,0.,-0.3));
#366=DIRECTION('',(1.,0.,-0.));
#367=VECTOR('',#366,0.38);
#368=LINE('',#365,#367);
#369=EDGE_CURVE('',#356,#364,#368,.T.);
#370=ORIENTED_EDGE('',*,*,#369,.T.);
#371=CARTESIAN_POINT('',(-0.,0.,0.));
#372=DIRECTION('',(0.,1.,0.));
#373=DIRECTION('',(0.,-0.,1.));
#374=AXIS2_PLACEMENT_3D('',#371,#372,#373);
#375=CIRCLE('',#374,0.3);
#376=EDGE_CURVE('',#348,#364,#375,.T.);
#377=ORIENTED_EDGE('',*,*,#376,.F.);
#378=EDGE_LOOP('',(#354,#362,#370,#377));
#379=FACE_BOUND('',#378,.T.);
#380=ADVANCED_FACE('',(#344,#379),#333,.F.);
#381=CARTESIAN_POINT('',(0.,0.,0.3));
#382=DIRECTION('',(0.,0.,1.));
#383=DIRECTION('',(1.,0.,0.));
#384=AXIS2_PLACEMENT_3D('',#381,#382,#383);
#385=PLANE('',#384);
#386=ORIENTED_EDGE('',*,*,#142,.T.);
#387=CARTESIAN_POINT('',(-0.462,0.31,0.3));
#388=DIRECTION('',(0.,0.,1.));
#389=DIRECTION('',(1.,0.,-0.));
#390=AXIS2_PLACEMENT_3D('',#387,#388,#389);
#391=CIRCLE('',#390,0.072);
#392=EDGE_CURVE('',#129,#159,#391,.T.);
#393=ORIENTED_EDGE('',*,*,#392,.T.);
#394=ORIENTED_EDGE('',*,*,#166,.T.);
#395=CARTESIAN_POINT('',(-0.794543894,0.382,0.3));
#396=DIRECTION('',(0.,-1.,0.));
#397=VECTOR('',#396,0.062);
#398=LINE('',#395,#397);
#399=EDGE_CURVE('',#161,#245,#398,.T.);
#400=ORIENTED_EDGE('',*,*,#399,.T.);
#401=ORIENTED_EDGE('',*,*,#250,.T.);
#402=CARTESIAN_POINT('',(-0.462,0.31,0.3));
#403=DIRECTION('',(-0.,-0.,-1.));
#404=DIRECTION('',(1.,0.,-0.));
#405=AXIS2_PLACEMENT_3D('',#402,#403,#404);
#406=CIRCLE('',#405,0.01);
#407=EDGE_CURVE('',#237,#313,#406,.T.);
#408=ORIENTED_EDGE('',*,*,#407,.T.);
#409=ORIENTED_EDGE('',*,*,#318,.T.);
#410=CARTESIAN_POINT('',(-0.38,0.072,0.3));
#411=DIRECTION('',(0.,0.,1.));
#412=DIRECTION('',(1.,0.,-0.));
#413=AXIS2_PLACEMENT_3D('',#410,#411,#412);
#414=CIRCLE('',#413,0.072);
#415=EDGE_CURVE('',#305,#346,#414,.T.);
#416=ORIENTED_EDGE('',*,*,#415,.T.);
#417=ORIENTED_EDGE('',*,*,#353,.T.);
#418=CARTESIAN_POINT('',(-0.,0.,0.3));
#419=DIRECTION('',(-0.,1.,0.));
#420=VECTOR('',#419,0.062);
#421=LINE('',#418,#420);
#422=EDGE_CURVE('',#348,#96,#421,.T.);
#423=ORIENTED_EDGE('',*,*,#422,.T.);
#424=ORIENTED_EDGE('',*,*,#101,.T.);
#425=CARTESIAN_POINT('',(-0.38,0.072,0.3));
#426=DIRECTION('',(-0.,-0.,-1.));
#427=DIRECTION('',(1.,0.,-0.));
#428=AXIS2_PLACEMENT_3D('',#425,#426,#427);
#429=CIRCLE('',#428,0.01);
#430=EDGE_CURVE('',#88,#137,#429,.T.);
#431=ORIENTED_EDGE('',*,*,#430,.T.);
#432=EDGE_LOOP('',(#386,#393,#394,#400,#401,#408,#409,#416,#417,#423,#424,#431));
#433=FACE_BOUND('',#432,.T.);
#434=ADVANCED_FACE('',(#433),#385,.T.);
#435=CARTESIAN_POINT('',(0.,0.,-0.3));
#436=DIRECTION('',(0.,0.,1.));
#437=DIRECTION('',(1.,0.,0.));
#438=AXIS2_PLACEMENT_3D('',#435,#436,#437);
#439=PLANE('',#438);
#440=ORIENTED_EDGE('',*,*,#182,.F.);
#441=CARTESIAN_POINT('',(-0.462,0.31,-0.3));
#442=DIRECTION('',(-0.,-0.,-1.));
#443=DIRECTION('',(1.,0.,-0.));
#444=AXIS2_PLACEMENT_3D('',#441,#442,#443);
#445=CIRCLE('',#444,0.072);
#446=EDGE_CURVE('',#169,#121,#445,.T.);
#447=ORIENTED_EDGE('',*,*,#446,.T.);
#448=ORIENTED_EDGE('',*,*,#126,.F.);
#449=CARTESIAN_POINT('',(-0.38,0.072,-0.3));
#450=DIRECTION('',(0.,0.,1.));
#451=DIRECTION('',(1.,0.,-0.));
#452=AXIS2_PLACEMENT_3D('',#449,#450,#451);
#453=CIRCLE('',#452,0.01);
#454=EDGE_CURVE('',#119,#80,#453,.T.);
#455=ORIENTED_EDGE('',*,*,#454,.T.);
#456=ORIENTED_EDGE('',*,*,#85,.F.);
#457=CARTESIAN_POINT('',(-0.,0.,-0.3));
#458=DIRECTION('',(-0.,1.,0.));
#459=VECTOR('',#458,0.062);
#460=LINE('',#457,#459);
#461=EDGE_CURVE('',#364,#78,#460,.T.);
#462=ORIENTED_EDGE('',*,*,#461,.F.);
#463=ORIENTED_EDGE('',*,*,#369,.F.);
#464=CARTESIAN_POINT('',(-0.38,0.072,-0.3));
#465=DIRECTION('',(-0.,-0.,-1.));
#466=DIRECTION('',(1.,0.,-0.));
#467=AXIS2_PLACEMENT_3D('',#464,#465,#466);
#468=CIRCLE('',#467,0.072);
#469=EDGE_CURVE('',#356,#297,#468,.T.);
#470=ORIENTED_EDGE('',*,*,#469,.T.);
#471=ORIENTED_EDGE('',*,*,#302,.F.);
#472=CARTESIAN_POINT('',(-0.462,0.31,-0.3));
#473=DIRECTION('',(0.,0.,1.));
#474=DIRECTION('',(1.,0.,-0.));
#475=AXIS2_PLACEMENT_3D('',#472,#473,#474);
#476=CIRCLE('',#475,0.01);
#477=EDGE_CURVE('',#295,#229,#476,.T.);
#478=ORIENTED_EDGE('',*,*,#477,.T.);
#479=ORIENTED_EDGE('',*,*,#234,.F.);
#480=CARTESIAN_POINT('',(-0.794543894,0.32,-0.3));
#481=DIRECTION('',(-0.,1.,0.));
#482=VECTOR('',#481,0.062);
#483=LINE('',#480,#482);
#484=EDGE_CURVE('',#227,#177,#483,.T.);
#485=ORIENTED_EDGE('',*,*,#484,.T.);
#486=EDGE_LOOP('',(#440,#447,#448,#455,#456,#462,#463,#470,#471,#478,#479,#485));
#487=FACE_BOUND('',#486,.T.);
#488=ADVANCED_FACE('',(#487),#439,.F.);
#489=CARTESIAN_POINT('',(-0.,0.062,0.));
#490=DIRECTION('',(0.,1.,0.));
#491=DIRECTION('',(0.,-0.,1.));
#492=AXIS2_PLACEMENT_3D('',#489,#490,#491);
#493=CYLINDRICAL_SURFACE('',#492,0.1405);
#494=CARTESIAN_POINT('',(-0.,0.062,0.1405));
#495=DIRECTION('',(-0.,-1.,-0.));
#496=VECTOR('',#495,0.062);
#497=LINE('',#494,#496);
#498=EDGE_CURVE('',#67,#335,#497,.T.);
#499=ORIENTED_EDGE('',*,*,#498,.F.);
#500=ORIENTED_EDGE('',*,*,#73,.T.);
#501=ORIENTED_EDGE('',*,*,#498,.T.);
#502=ORIENTED_EDGE('',*,*,#341,.F.);
#503=EDGE_LOOP('',(#499,#500,#501,#502));
#504=FACE_BOUND('',#503,.T.);
#505=ADVANCED_FACE('',(#504),#493,.F.);
#506=CARTESIAN_POINT('',(-0.,-0.00003937,0.));
#507=DIRECTION('',(-0.,1.,0.));
#508=DIRECTION('',(-1.,-0.,0.));
#509=AXIS2_PLACEMENT_3D('',#506,#507,#508);
#510=CYLINDRICAL_SURFACE('',#509,0.3);
#511=ORIENTED_EDGE('',*,*,#376,.T.);
#512=ORIENTED_EDGE('',*,*,#461,.T.);
#513=ORIENTED_EDGE('',*,*,#108,.T.);
#514=ORIENTED_EDGE('',*,*,#422,.F.);
#515=EDGE_LOOP('',(#511,#512,#513,#514));
#516=FACE_BOUND('',#515,.T.);
#517=ADVANCED_FACE('',(#516),#510,.T.);
#518=CARTESIAN_POINT('',(0.,-0.290379598,0.));
#519=DIRECTION('',(-0.,1.,0.));
#520=DIRECTION('',(-1.,-0.,0.));
#521=AXIS2_PLACEMENT_3D('',#518,#519,#520);
#522=CYLINDRICAL_SURFACE('',#521,0.89);
#523=CARTESIAN_POINT('',(-0.89,0.382,0.));
#524=DIRECTION('',(0.,-1.,-0.));
#525=VECTOR('',#524,0.062);
#526=LINE('',#523,#525);
#527=EDGE_CURVE('',#194,#262,#526,.T.);
#528=ORIENTED_EDGE('',*,*,#527,.T.);
#529=ORIENTED_EDGE('',*,*,#268,.T.);
#530=CARTESIAN_POINT('',(-0.851980802,0.32,0.257349398));
#531=DIRECTION('',(-0.,1.,0.));
#532=VECTOR('',#531,0.062);
#533=LINE('',#530,#532);
#534=EDGE_CURVE('',#253,#203,#533,.T.);
#535=ORIENTED_EDGE('',*,*,#534,.T.);
#536=ORIENTED_EDGE('',*,*,#209,.T.);
#537=EDGE_LOOP('',(#528,#529,#535,#536));
#538=FACE_BOUND('',#537,.T.);
#539=ADVANCED_FACE('',(#538),#522,.T.);
#540=CARTESIAN_POINT('',(-0.794543894,-0.290379598,-0.24));
#541=DIRECTION('',(-0.,1.,0.));
#542=DIRECTION('',(-1.,-0.,0.));
#543=AXIS2_PLACEMENT_3D('',#540,#541,#542);
#544=CYLINDRICAL_SURFACE('',#543,0.06);
#545=ORIENTED_EDGE('',*,*,#284,.F.);
#546=CARTESIAN_POINT('',(-0.851980802,0.382,-0.257349398));
#547=DIRECTION('',(0.,-1.,-0.));
#548=VECTOR('',#547,0.062);
#549=LINE('',#546,#548);
#550=EDGE_CURVE('',#185,#271,#549,.T.);
#551=ORIENTED_EDGE('',*,*,#550,.F.);
#552=ORIENTED_EDGE('',*,*,#191,.F.);
#553=ORIENTED_EDGE('',*,*,#484,.F.);
#554=EDGE_LOOP('',(#545,#551,#552,#553));
#555=FACE_BOUND('',#554,.T.);
#556=ADVANCED_FACE('',(#555),#544,.T.);
#557=CARTESIAN_POINT('',(-0.794543894,-0.290379598,0.24));
#558=DIRECTION('',(-0.,1.,0.));
#559=DIRECTION('',(-1.,-0.,0.));
#560=AXIS2_PLACEMENT_3D('',#557,#558,#559);
#561=CYLINDRICAL_SURFACE('',#560,0.06);
#562=ORIENTED_EDGE('',*,*,#259,.F.);
#563=ORIENTED_EDGE('',*,*,#399,.F.);
#564=ORIENTED_EDGE('',*,*,#216,.F.);
#565=ORIENTED_EDGE('',*,*,#534,.F.);
#566=EDGE_LOOP('',(#562,#563,#564,#565));
#567=FACE_BOUND('',#566,.T.);
#568=ADVANCED_FACE('',(#567),#561,.T.);
#569=CARTESIAN_POINT('',(-0.38,0.072,0.3));
#570=DIRECTION('',(0.,0.,1.));
#571=DIRECTION('',(1.,0.,-0.));
#572=AXIS2_PLACEMENT_3D('',#569,#570,#571);
#573=CYLINDRICAL_SURFACE('',#572,0.01);
#574=ORIENTED_EDGE('',*,*,#430,.F.);
#575=ORIENTED_EDGE('',*,*,#93,.F.);
#576=ORIENTED_EDGE('',*,*,#454,.F.);
#577=ORIENTED_EDGE('',*,*,#148,.F.);
#578=EDGE_LOOP('',(#574,#575,#576,#577));
#579=FACE_BOUND('',#578,.T.);
#580=ADVANCED_FACE('',(#579),#573,.F.);
#581=CARTESIAN_POINT('',(-0.462,0.31,0.3));
#582=DIRECTION('',(0.,0.,1.));
#583=DIRECTION('',(1.,0.,-0.));
#584=AXIS2_PLACEMENT_3D('',#581,#582,#583);
#585=CYLINDRICAL_SURFACE('',#584,0.01);
#586=ORIENTED_EDGE('',*,*,#407,.F.);
#587=ORIENTED_EDGE('',*,*,#242,.F.);
#588=ORIENTED_EDGE('',*,*,#477,.F.);
#589=ORIENTED_EDGE('',*,*,#324,.F.);
#590=EDGE_LOOP('',(#586,#587,#588,#589));
#591=FACE_BOUND('',#590,.T.);
#592=ADVANCED_FACE('',(#591),#585,.F.);
#593=CARTESIAN_POINT('',(-0.462,0.31,0.3));
#594=DIRECTION('',(0.,0.,-1.));
#595=DIRECTION('',(-1.,0.,0.));
#596=AXIS2_PLACEMENT_3D('',#593,#594,#595);
#597=CYLINDRICAL_SURFACE('',#596,0.072);
#598=ORIENTED_EDGE('',*,*,#392,.F.);
#599=ORIENTED_EDGE('',*,*,#134,.F.);
#600=ORIENTED_EDGE('',*,*,#446,.F.);
#601=ORIENTED_EDGE('',*,*,#174,.F.);
#602=EDGE_LOOP('',(#598,#599,#600,#601));
#603=FACE_BOUND('',#602,.T.);
#604=ADVANCED_FACE('',(#603),#597,.T.);
#605=CARTESIAN_POINT('',(-0.38,0.072,0.3));
#606=DIRECTION('',(0.,0.,-1.));
#607=DIRECTION('',(-1.,0.,0.));
#608=AXIS2_PLACEMENT_3D('',#605,#606,#607);
#609=CYLINDRICAL_SURFACE('',#608,0.072);
#610=ORIENTED_EDGE('',*,*,#415,.F.);
#611=ORIENTED_EDGE('',*,*,#310,.F.);
#612=ORIENTED_EDGE('',*,*,#469,.F.);
#613=ORIENTED_EDGE('',*,*,#361,.F.);
#614=EDGE_LOOP('',(#610,#611,#612,#613));
#615=FACE_BOUND('',#614,.T.);
#616=ADVANCED_FACE('',(#615),#609,.T.);
#617=CARTESIAN_POINT('',(0.,-0.290379598,0.));
#618=DIRECTION('',(-0.,1.,0.));
#619=DIRECTION('',(-1.,-0.,0.));
#620=AXIS2_PLACEMENT_3D('',#617,#618,#619);
#621=CYLINDRICAL_SURFACE('',#620,0.89);
#622=ORIENTED_EDGE('',*,*,#527,.F.);
#623=ORIENTED_EDGE('',*,*,#200,.T.);
#624=ORIENTED_EDGE('',*,*,#550,.T.);
#625=ORIENTED_EDGE('',*,*,#277,.T.);
#626=EDGE_LOOP('',(#622,#623,#624,#625));
#627=FACE_BOUND('',#626,.T.);
#628=ADVANCED_FACE('',(#627),#621,.T.);
#629=CLOSED_SHELL('',(#112,#152,#220,#288,#328,#380,#434,#488,#505,#517,#539,#556,#568,#580,#592,#604,#616,#628));
#630=MANIFOLD_SOLID_BREP('',#629);
#631=COLOUR_RGB('',0.866666675,0.909803927,1.);
#632=FILL_AREA_STYLE_COLOUR('',#631);
#633=FILL_AREA_STYLE('',(#632));
#634=SURFACE_STYLE_FILL_AREA(#633);
#635=SURFACE_SIDE_STYLE('',(#634));
#636=SURFACE_STYLE_USAGE(.BOTH.,#635);
#637=PRESENTATION_STYLE_ASSIGNMENT((#636));
#60=STYLED_ITEM('',(#637),#630);
#41=SHAPE_REPRESENTATION('Default',(#18),#39);
#42=ADVANCED_BREP_SHAPE_REPRESENTATION('Default',(#630),#39);
#645=SHAPE_REPRESENTATION_RELATIONSHIP('','',#41,#42);
#646=APPLICATION_CONTEXT('configuration controlled 3D design of mechanical parts and assemblies');
#647=APPLICATION_PROTOCOL_DEFINITION('international standard','configuration_control_3d_design_ed2_mim',2004,#646);
#648=PRODUCT_CONTEXT('',#646,'mechanical');
#649=PRODUCT_DEFINITION_CONTEXT('part definition',#646,'design');
#49=PRODUCT('Default','Default','',(#648));
#650=PRODUCT_RELATED_PRODUCT_CATEGORY('part','',(#49));
#651=PRODUCT_DEFINITION_FORMATION_WITH_SPECIFIED_SOURCE('','',#49,.NOT_KNOWN.);
#50=PRODUCT_DEFINITION('design','',#651,#649);
#48=PRODUCT_DEFINITION_SHAPE('','',#50);
#652=SHAPE_DEFINITION_REPRESENTATION(#48,#41);
#40=DRAUGHTING_MODEL('',(),#39);
#19=SHAPE_REPRESENTATION('xom0rgwupa9',(#18,#54),#13);
#27=PRODUCT('xom0rgwupa9','xom0rgwupa9','',(#648));
#653=PRODUCT_RELATED_PRODUCT_CATEGORY('part','',(#27));
#654=PRODUCT_DEFINITION_FORMATION_WITH_SPECIFIED_SOURCE('','',#27,.NOT_KNOWN.);
#28=PRODUCT_DEFINITION('design','',#654,#649);
#26=PRODUCT_DEFINITION_SHAPE('','',#28);
#655=SHAPE_DEFINITION_REPRESENTATION(#26,#19);
#14=DRAUGHTING_MODEL('',(),#13);
#1=MECHANICAL_DESIGN_GEOMETRIC_PRESENTATION_REPRESENTATION('',(#60),#13);
ENDSEC;
END-ISO-10303-21;
